<?xml version="1.0" encoding="utf-8" standalone="no"?>
<!DOCTYPE svg PUBLIC "-//W3C//DTD SVG 1.1//EN"
  "http://www.w3.org/Graphics/SVG/1.1/DTD/svg11.dtd">
<svg xmlns:xlink="http://www.w3.org/1999/xlink" width="391.245pt" height="297.190125pt" viewBox="0 0 391.245 297.190125" xmlns="http://www.w3.org/2000/svg" version="1.1">
 <metadata>
  <rdf:RDF xmlns:dc="http://purl.org/dc/elements/1.1/" xmlns:cc="http://creativecommons.org/ns#" xmlns:rdf="http://www.w3.org/1999/02/22-rdf-syntax-ns#">
   <cc:Work>
    <dc:type rdf:resource="http://purl.org/dc/dcmitype/StillImage"/>
    <dc:date>2025-07-03T21:23:22.918123</dc:date>
    <dc:format>image/svg+xml</dc:format>
    <dc:creator>
     <cc:Agent>
      <dc:title>Matplotlib v3.9.2, https://matplotlib.org/</dc:title>
     </cc:Agent>
    </dc:creator>
   </cc:Work>
  </rdf:RDF>
 </metadata>
 <defs>
  <style type="text/css">*{stroke-linejoin: round; stroke-linecap: butt}</style>
 </defs>
 <g id="figure_1">
  <g id="patch_1">
   <path d="M 0 297.190125 
L 391.245 297.190125 
L 391.245 0 
L 0 0 
z
" style="fill: #ffffff"/>
  </g>
  <g id="axes_1">
   <g id="patch_2">
    <path d="M 26.925 273.312 
L 384.045 273.312 
L 384.045 7.2 
L 26.925 7.2 
z
" style="fill: #ffffff"/>
   </g>
   <g id="matplotlib.axis_1">
    <g id="xtick_1">
     <g id="line2d_1">
      <defs>
       <path id="m40797a922e" d="M 0 0 
L 0 3.5 
" style="stroke: #000000; stroke-width: 0.8"/>
      </defs>
      <g>
       <use xlink:href="#m40797a922e" x="43.157727" y="273.312" style="stroke: #000000; stroke-width: 0.8"/>
      </g>
     </g>
     <g id="text_1">
      <!-- 0 -->
      <g transform="translate(39.976477 287.910437) scale(0.1 -0.1)">
       <defs>
        <path id="DejaVuSans-30" d="M 2034 4250 
Q 1547 4250 1301 3770 
Q 1056 3291 1056 2328 
Q 1056 1369 1301 889 
Q 1547 409 2034 409 
Q 2525 409 2770 889 
Q 3016 1369 3016 2328 
Q 3016 3291 2770 3770 
Q 2525 4250 2034 4250 
z
M 2034 4750 
Q 2819 4750 3233 4129 
Q 3647 3509 3647 2328 
Q 3647 1150 3233 529 
Q 2819 -91 2034 -91 
Q 1250 -91 836 529 
Q 422 1150 422 2328 
Q 422 3509 836 4129 
Q 1250 4750 2034 4750 
z
" transform="scale(0.015625)"/>
       </defs>
       <use xlink:href="#DejaVuSans-30"/>
      </g>
     </g>
    </g>
    <g id="xtick_2">
     <g id="line2d_2">
      <g>
       <use xlink:href="#m40797a922e" x="109.413757" y="273.312" style="stroke: #000000; stroke-width: 0.8"/>
      </g>
     </g>
     <g id="text_2">
      <!-- 100 -->
      <g transform="translate(99.870007 287.910437) scale(0.1 -0.1)">
       <defs>
        <path id="DejaVuSans-31" d="M 794 531 
L 1825 531 
L 1825 4091 
L 703 3866 
L 703 4441 
L 1819 4666 
L 2450 4666 
L 2450 531 
L 3481 531 
L 3481 0 
L 794 0 
L 794 531 
z
" transform="scale(0.015625)"/>
       </defs>
       <use xlink:href="#DejaVuSans-31"/>
       <use xlink:href="#DejaVuSans-30" x="63.623047"/>
       <use xlink:href="#DejaVuSans-30" x="127.246094"/>
      </g>
     </g>
    </g>
    <g id="xtick_3">
     <g id="line2d_3">
      <g>
       <use xlink:href="#m40797a922e" x="175.669787" y="273.312" style="stroke: #000000; stroke-width: 0.8"/>
      </g>
     </g>
     <g id="text_3">
      <!-- 200 -->
      <g transform="translate(166.126037 287.910437) scale(0.1 -0.1)">
       <defs>
        <path id="DejaVuSans-32" d="M 1228 531 
L 3431 531 
L 3431 0 
L 469 0 
L 469 531 
Q 828 903 1448 1529 
Q 2069 2156 2228 2338 
Q 2531 2678 2651 2914 
Q 2772 3150 2772 3378 
Q 2772 3750 2511 3984 
Q 2250 4219 1831 4219 
Q 1534 4219 1204 4116 
Q 875 4013 500 3803 
L 500 4441 
Q 881 4594 1212 4672 
Q 1544 4750 1819 4750 
Q 2544 4750 2975 4387 
Q 3406 4025 3406 3419 
Q 3406 3131 3298 2873 
Q 3191 2616 2906 2266 
Q 2828 2175 2409 1742 
Q 1991 1309 1228 531 
z
" transform="scale(0.015625)"/>
       </defs>
       <use xlink:href="#DejaVuSans-32"/>
       <use xlink:href="#DejaVuSans-30" x="63.623047"/>
       <use xlink:href="#DejaVuSans-30" x="127.246094"/>
      </g>
     </g>
    </g>
    <g id="xtick_4">
     <g id="line2d_4">
      <g>
       <use xlink:href="#m40797a922e" x="241.925816" y="273.312" style="stroke: #000000; stroke-width: 0.8"/>
      </g>
     </g>
     <g id="text_4">
      <!-- 300 -->
      <g transform="translate(232.382066 287.910437) scale(0.1 -0.1)">
       <defs>
        <path id="DejaVuSans-33" d="M 2597 2516 
Q 3050 2419 3304 2112 
Q 3559 1806 3559 1356 
Q 3559 666 3084 287 
Q 2609 -91 1734 -91 
Q 1441 -91 1130 -33 
Q 819 25 488 141 
L 488 750 
Q 750 597 1062 519 
Q 1375 441 1716 441 
Q 2309 441 2620 675 
Q 2931 909 2931 1356 
Q 2931 1769 2642 2001 
Q 2353 2234 1838 2234 
L 1294 2234 
L 1294 2753 
L 1863 2753 
Q 2328 2753 2575 2939 
Q 2822 3125 2822 3475 
Q 2822 3834 2567 4026 
Q 2313 4219 1838 4219 
Q 1578 4219 1281 4162 
Q 984 4106 628 3988 
L 628 4550 
Q 988 4650 1302 4700 
Q 1616 4750 1894 4750 
Q 2613 4750 3031 4423 
Q 3450 4097 3450 3541 
Q 3450 3153 3228 2886 
Q 3006 2619 2597 2516 
z
" transform="scale(0.015625)"/>
       </defs>
       <use xlink:href="#DejaVuSans-33"/>
       <use xlink:href="#DejaVuSans-30" x="63.623047"/>
       <use xlink:href="#DejaVuSans-30" x="127.246094"/>
      </g>
     </g>
    </g>
    <g id="xtick_5">
     <g id="line2d_5">
      <g>
       <use xlink:href="#m40797a922e" x="308.181846" y="273.312" style="stroke: #000000; stroke-width: 0.8"/>
      </g>
     </g>
     <g id="text_5">
      <!-- 400 -->
      <g transform="translate(298.638096 287.910437) scale(0.1 -0.1)">
       <defs>
        <path id="DejaVuSans-34" d="M 2419 4116 
L 825 1625 
L 2419 1625 
L 2419 4116 
z
M 2253 4666 
L 3047 4666 
L 3047 1625 
L 3713 1625 
L 3713 1100 
L 3047 1100 
L 3047 0 
L 2419 0 
L 2419 1100 
L 313 1100 
L 313 1709 
L 2253 4666 
z
" transform="scale(0.015625)"/>
       </defs>
       <use xlink:href="#DejaVuSans-34"/>
       <use xlink:href="#DejaVuSans-30" x="63.623047"/>
       <use xlink:href="#DejaVuSans-30" x="127.246094"/>
      </g>
     </g>
    </g>
    <g id="xtick_6">
     <g id="line2d_6">
      <g>
       <use xlink:href="#m40797a922e" x="374.437876" y="273.312" style="stroke: #000000; stroke-width: 0.8"/>
      </g>
     </g>
     <g id="text_6">
      <!-- 500 -->
      <g transform="translate(364.894126 287.910437) scale(0.1 -0.1)">
       <defs>
        <path id="DejaVuSans-35" d="M 691 4666 
L 3169 4666 
L 3169 4134 
L 1269 4134 
L 1269 2991 
Q 1406 3038 1543 3061 
Q 1681 3084 1819 3084 
Q 2600 3084 3056 2656 
Q 3513 2228 3513 1497 
Q 3513 744 3044 326 
Q 2575 -91 1722 -91 
Q 1428 -91 1123 -41 
Q 819 9 494 109 
L 494 744 
Q 775 591 1075 516 
Q 1375 441 1709 441 
Q 2250 441 2565 725 
Q 2881 1009 2881 1497 
Q 2881 1984 2565 2268 
Q 2250 2553 1709 2553 
Q 1456 2553 1204 2497 
Q 953 2441 691 2322 
L 691 4666 
z
" transform="scale(0.015625)"/>
       </defs>
       <use xlink:href="#DejaVuSans-35"/>
       <use xlink:href="#DejaVuSans-30" x="63.623047"/>
       <use xlink:href="#DejaVuSans-30" x="127.246094"/>
      </g>
     </g>
    </g>
   </g>
   <g id="matplotlib.axis_2">
    <g id="ytick_1">
     <g id="line2d_7">
      <defs>
       <path id="m1c37d08f60" d="M 0 0 
L -3.5 0 
" style="stroke: #000000; stroke-width: 0.8"/>
      </defs>
      <g>
       <use xlink:href="#m1c37d08f60" x="26.925" y="262.465217" style="stroke: #000000; stroke-width: 0.8"/>
      </g>
     </g>
     <g id="text_7">
      <!-- 0 -->
      <g transform="translate(13.5625 266.264436) scale(0.1 -0.1)">
       <use xlink:href="#DejaVuSans-30"/>
      </g>
     </g>
    </g>
    <g id="ytick_2">
     <g id="line2d_8">
      <g>
       <use xlink:href="#m1c37d08f60" x="26.925" y="210.352739" style="stroke: #000000; stroke-width: 0.8"/>
      </g>
     </g>
     <g id="text_8">
      <!-- 20 -->
      <g transform="translate(7.2 214.151958) scale(0.1 -0.1)">
       <use xlink:href="#DejaVuSans-32"/>
       <use xlink:href="#DejaVuSans-30" x="63.623047"/>
      </g>
     </g>
    </g>
    <g id="ytick_3">
     <g id="line2d_9">
      <g>
       <use xlink:href="#m1c37d08f60" x="26.925" y="158.240261" style="stroke: #000000; stroke-width: 0.8"/>
      </g>
     </g>
     <g id="text_9">
      <!-- 40 -->
      <g transform="translate(7.2 162.03948) scale(0.1 -0.1)">
       <use xlink:href="#DejaVuSans-34"/>
       <use xlink:href="#DejaVuSans-30" x="63.623047"/>
      </g>
     </g>
    </g>
    <g id="ytick_4">
     <g id="line2d_10">
      <g>
       <use xlink:href="#m1c37d08f60" x="26.925" y="106.127783" style="stroke: #000000; stroke-width: 0.8"/>
      </g>
     </g>
     <g id="text_10">
      <!-- 60 -->
      <g transform="translate(7.2 109.927002) scale(0.1 -0.1)">
       <defs>
        <path id="DejaVuSans-36" d="M 2113 2584 
Q 1688 2584 1439 2293 
Q 1191 2003 1191 1497 
Q 1191 994 1439 701 
Q 1688 409 2113 409 
Q 2538 409 2786 701 
Q 3034 994 3034 1497 
Q 3034 2003 2786 2293 
Q 2538 2584 2113 2584 
z
M 3366 4563 
L 3366 3988 
Q 3128 4100 2886 4159 
Q 2644 4219 2406 4219 
Q 1781 4219 1451 3797 
Q 1122 3375 1075 2522 
Q 1259 2794 1537 2939 
Q 1816 3084 2150 3084 
Q 2853 3084 3261 2657 
Q 3669 2231 3669 1497 
Q 3669 778 3244 343 
Q 2819 -91 2113 -91 
Q 1303 -91 875 529 
Q 447 1150 447 2328 
Q 447 3434 972 4092 
Q 1497 4750 2381 4750 
Q 2619 4750 2861 4703 
Q 3103 4656 3366 4563 
z
" transform="scale(0.015625)"/>
       </defs>
       <use xlink:href="#DejaVuSans-36"/>
       <use xlink:href="#DejaVuSans-30" x="63.623047"/>
      </g>
     </g>
    </g>
    <g id="ytick_5">
     <g id="line2d_11">
      <g>
       <use xlink:href="#m1c37d08f60" x="26.925" y="54.015305" style="stroke: #000000; stroke-width: 0.8"/>
      </g>
     </g>
     <g id="text_11">
      <!-- 80 -->
      <g transform="translate(7.2 57.814524) scale(0.1 -0.1)">
       <defs>
        <path id="DejaVuSans-38" d="M 2034 2216 
Q 1584 2216 1326 1975 
Q 1069 1734 1069 1313 
Q 1069 891 1326 650 
Q 1584 409 2034 409 
Q 2484 409 2743 651 
Q 3003 894 3003 1313 
Q 3003 1734 2745 1975 
Q 2488 2216 2034 2216 
z
M 1403 2484 
Q 997 2584 770 2862 
Q 544 3141 544 3541 
Q 544 4100 942 4425 
Q 1341 4750 2034 4750 
Q 2731 4750 3128 4425 
Q 3525 4100 3525 3541 
Q 3525 3141 3298 2862 
Q 3072 2584 2669 2484 
Q 3125 2378 3379 2068 
Q 3634 1759 3634 1313 
Q 3634 634 3220 271 
Q 2806 -91 2034 -91 
Q 1263 -91 848 271 
Q 434 634 434 1313 
Q 434 1759 690 2068 
Q 947 2378 1403 2484 
z
M 1172 3481 
Q 1172 3119 1398 2916 
Q 1625 2713 2034 2713 
Q 2441 2713 2670 2916 
Q 2900 3119 2900 3481 
Q 2900 3844 2670 4047 
Q 2441 4250 2034 4250 
Q 1625 4250 1398 4047 
Q 1172 3844 1172 3481 
z
" transform="scale(0.015625)"/>
       </defs>
       <use xlink:href="#DejaVuSans-38"/>
       <use xlink:href="#DejaVuSans-30" x="63.623047"/>
      </g>
     </g>
    </g>
   </g>
   <g id="line2d_12">
    <path d="M 43.157727 99.534274 
L 43.820288 109.210507 
L 44.482848 99.575221 
L 45.145408 102.361079 
L 45.807968 63.007966 
L 46.470529 92.169407 
L 47.133089 19.296 
L 47.795649 102.731361 
L 48.45821 108.260392 
L 49.12077 93.301983 
L 49.78333 104.624492 
L 50.445891 70.916558 
L 51.108451 120.908802 
L 51.771011 126.861734 
L 52.433571 116.75678 
L 53.096132 119.654104 
L 53.758692 100.754675 
L 54.421252 142.008966 
L 55.083813 158.552013 
L 56.408933 133.551747 
L 57.734054 166.877142 
L 58.396614 168.343579 
L 59.059174 177.930375 
L 59.721735 158.531635 
L 60.384295 180.89323 
L 61.046855 160.024115 
L 61.709416 187.523875 
L 62.371976 180.814117 
L 63.034536 168.102881 
L 63.697096 193.161482 
L 64.359657 169.367177 
L 65.022217 182.265764 
L 65.684777 162.931731 
L 67.009898 204.096909 
L 67.672458 198.661754 
L 68.335019 208.95517 
L 68.997579 202.38392 
L 69.660139 186.152699 
L 70.322699 202.038592 
L 70.98526 155.040768 
L 71.64782 198.830901 
L 72.31038 209.197157 
L 72.972941 213.106863 
L 73.635501 55.127963 
L 74.298061 211.631563 
L 74.960622 216.471609 
L 75.623182 146.721863 
L 76.285742 210.611649 
L 76.948302 195.327214 
L 77.610863 219.631149 
L 78.273423 218.685094 
L 78.935983 188.112541 
L 79.598544 224.964857 
L 80.261104 218.839439 
L 80.923664 222.175563 
L 81.586224 193.362332 
L 82.248785 215.915982 
L 82.911345 218.58004 
L 83.573905 223.18401 
L 84.236466 225.404442 
L 84.899026 223.417815 
L 85.561586 221.032023 
L 86.224147 220.64081 
L 86.886707 201.057734 
L 87.549267 222.412968 
L 88.211827 218.819571 
L 88.874388 226.66508 
L 89.536948 220.629107 
L 90.199508 224.365425 
L 90.862069 231.141627 
L 91.524629 225.2415 
L 92.187189 232.865443 
L 92.84975 225.319558 
L 93.51231 229.223409 
L 94.17487 225.900539 
L 94.83743 236.078559 
L 95.499991 222.254683 
L 96.162551 222.229392 
L 96.825111 233.483832 
L 97.487672 229.76116 
L 98.150232 228.617179 
L 98.812792 233.586148 
L 99.475353 226.393486 
L 100.137913 229.152252 
L 100.800473 223.984078 
L 101.463033 237.802184 
L 102.125594 237.672733 
L 102.788154 239.211257 
L 103.450714 236.939252 
L 104.113275 227.753151 
L 104.775835 234.553931 
L 105.438395 230.954398 
L 106.100955 242.800311 
L 106.763516 231.729493 
L 107.426076 243.349187 
L 108.088636 238.625424 
L 108.751197 244.055716 
L 109.413757 244.964567 
L 110.076317 245.355346 
L 110.738878 248.655749 
L 111.401438 243.782474 
L 112.063998 240.540371 
L 112.726558 248.142214 
L 113.389119 249.630789 
L 114.051679 244.515362 
L 114.714239 242.357889 
L 115.3768 247.755584 
L 116.03936 248.752362 
L 116.70192 251.907866 
L 117.364481 250.337849 
L 118.027041 248.276488 
L 118.689601 247.787294 
L 119.352161 249.05134 
L 120.014722 252.684898 
L 120.677282 247.137786 
L 121.339842 251.885972 
L 122.002403 253.302646 
L 123.327523 253.005792 
L 123.990083 253.489067 
L 124.652644 250.932237 
L 125.315204 253.291185 
L 125.977764 252.727694 
L 126.640325 250.074405 
L 127.302885 252.597858 
L 127.965445 253.596661 
L 128.628006 250.253209 
L 129.290566 252.923582 
L 129.953126 254.557656 
L 130.615686 255.503409 
L 131.278247 253.850096 
L 131.940807 253.168547 
L 132.603367 253.897901 
L 133.265928 253.52386 
L 133.928488 253.306329 
L 134.591048 254.004786 
L 135.253609 255.958518 
L 135.916169 256.13635 
L 136.578729 255.618753 
L 137.241289 254.465553 
L 137.90385 255.487079 
L 138.56641 255.2627 
L 139.22897 255.911861 
L 139.891531 252.079099 
L 140.554091 256.600507 
L 141.216651 257.209407 
L 141.879212 256.191272 
L 142.541772 257.896356 
L 143.204332 256.709799 
L 143.866892 257.209757 
L 144.529453 257.471253 
L 145.192013 256.080912 
L 145.854573 256.979351 
L 146.517134 256.209747 
L 147.179694 256.804084 
L 147.842254 256.220034 
L 148.504814 257.92089 
L 149.167375 255.715979 
L 149.829935 253.029548 
L 150.492495 252.930621 
L 151.155056 259.367938 
L 151.817616 258.481663 
L 152.480176 247.136831 
L 153.142737 257.56954 
L 154.467857 258.710397 
L 155.130417 256.565789 
L 155.792978 258.796657 
L 156.455538 258.905339 
L 157.118098 258.071355 
L 157.780659 256.419964 
L 158.443219 258.714326 
L 159.105779 257.859663 
L 159.76834 257.960235 
L 160.4309 258.359542 
L 161.09346 258.036943 
L 161.75602 258.593175 
L 162.418581 258.830705 
L 163.081141 254.410123 
L 164.406262 259.155438 
L 165.068822 258.447735 
L 165.731382 259.258551 
L 166.393942 259.24276 
L 167.056503 256.270986 
L 167.719063 259.017513 
L 168.381623 256.568299 
L 169.044184 258.028249 
L 169.706744 259.846729 
L 170.369304 257.710285 
L 171.031865 259.394031 
L 171.694425 258.924129 
L 172.356985 259.529581 
L 173.019545 259.421916 
L 173.682106 259.004278 
L 174.344666 258.797865 
L 175.007226 259.153278 
L 175.669787 259.981497 
L 176.332347 257.261558 
L 176.994907 259.565457 
L 177.657468 254.774724 
L 178.320028 258.882513 
L 178.982588 260.050817 
L 179.645148 259.539936 
L 180.307709 259.916928 
L 180.970269 259.52174 
L 181.632829 259.352383 
L 182.29539 260.2303 
L 182.95795 258.836175 
L 183.62051 259.528927 
L 184.283071 257.287277 
L 184.945631 259.495741 
L 185.608191 259.600923 
L 186.270751 254.160666 
L 186.933312 240.97201 
L 187.595872 259.96438 
L 188.258432 259.957096 
L 188.920993 259.390926 
L 189.583553 259.715545 
L 190.246113 259.856125 
L 190.908673 259.49246 
L 191.571234 260.064157 
L 192.233794 259.46578 
L 192.896354 259.945661 
L 193.558915 258.394652 
L 194.221475 260.485131 
L 194.884035 252.283631 
L 195.546596 260.127719 
L 196.209156 259.384198 
L 196.871716 260.529694 
L 197.534276 259.808326 
L 198.196837 260.40347 
L 198.859397 259.211374 
L 199.521957 259.109982 
L 202.172199 260.047344 
L 202.834759 259.256457 
L 203.497319 259.954237 
L 204.159879 260.475317 
L 204.82244 259.509307 
L 205.485 259.469978 
L 206.14756 260.423077 
L 206.810121 259.658307 
L 207.472681 259.852385 
L 208.135241 260.251135 
L 208.797801 260.080322 
L 209.460362 258.767823 
L 210.122922 251.902407 
L 210.785482 258.433625 
L 211.448043 256.236595 
L 212.110603 259.321755 
L 213.435724 259.162292 
L 214.098284 260.748834 
L 214.760844 259.964212 
L 215.423404 259.810998 
L 216.085965 258.718851 
L 216.748525 259.75517 
L 217.411085 260.426364 
L 218.073646 259.612647 
L 218.736206 253.52439 
L 219.398766 259.779177 
L 220.061327 259.43114 
L 220.723887 260.160749 
L 221.386447 259.418313 
L 222.049007 260.63836 
L 222.711568 259.518592 
L 223.374128 260.280342 
L 224.036688 258.913932 
L 224.699249 260.455963 
L 225.361809 257.713288 
L 226.024369 256.610999 
L 226.686929 259.289217 
L 227.34949 260.847839 
L 228.01205 260.311984 
L 228.67461 258.136159 
L 229.337171 260.480915 
L 229.999731 260.229073 
L 230.662291 260.332325 
L 231.324852 260.63118 
L 231.987412 259.021903 
L 232.649972 260.36258 
L 233.312532 260.668289 
L 233.975093 258.721757 
L 234.637653 260.378636 
L 235.300213 259.789931 
L 235.962774 260.370693 
L 237.287894 260.566782 
L 237.950455 260.352431 
L 238.613015 260.35911 
L 239.275575 258.650513 
L 239.938135 259.164531 
L 240.600696 260.249455 
L 241.263256 259.543127 
L 241.925816 256.254685 
L 242.588377 260.184445 
L 243.250937 258.45938 
L 243.913497 260.133588 
L 244.576058 256.85618 
L 245.238618 259.402369 
L 245.901178 260.006408 
L 246.563738 252.591988 
L 247.226299 260.232989 
L 247.888859 259.341091 
L 248.551419 259.188203 
L 249.21398 260.700184 
L 249.87654 258.384243 
L 250.5391 259.544184 
L 251.20166 260.29419 
L 251.864221 257.117295 
L 252.526781 260.798506 
L 253.189341 260.789231 
L 253.851902 259.223753 
L 254.514462 260.548181 
L 255.177022 259.945457 
L 255.839583 259.90652 
L 256.502143 260.209719 
L 257.164703 260.002742 
L 257.827263 260.432819 
L 258.489824 259.452714 
L 259.152384 260.827328 
L 259.814944 258.662591 
L 260.477505 260.808083 
L 261.140065 259.169824 
L 261.802625 259.638775 
L 262.465186 260.708192 
L 263.127746 257.832626 
L 263.790306 260.128795 
L 264.452866 257.116373 
L 265.115427 259.163903 
L 265.777987 260.295678 
L 266.440547 260.110833 
L 267.103108 259.511195 
L 267.765668 260.507129 
L 268.428228 259.263664 
L 269.090788 260.21697 
L 269.753349 260.600674 
L 270.415909 258.6157 
L 271.078469 253.998457 
L 271.74103 260.652107 
L 272.40359 259.028184 
L 273.06615 260.226291 
L 273.728711 257.680926 
L 274.391271 260.829876 
L 275.716391 259.282247 
L 276.378952 258.938303 
L 277.041512 260.290103 
L 277.704072 260.022233 
L 278.366633 260.475553 
L 279.029193 253.720527 
L 279.691753 259.386009 
L 280.354314 258.537341 
L 281.016874 260.769163 
L 281.679434 261.025073 
L 282.341994 259.677604 
L 283.004555 259.455305 
L 283.667115 260.63751 
L 284.329675 260.024212 
L 285.654796 259.957701 
L 286.317356 259.3331 
L 287.642477 260.617014 
L 288.305037 259.092099 
L 288.967597 260.721025 
L 289.630158 260.177548 
L 290.292718 258.232411 
L 290.955278 259.382177 
L 291.617839 257.936379 
L 292.280399 259.731717 
L 292.942959 258.656844 
L 293.605519 260.92086 
L 294.26808 260.199306 
L 294.93064 260.726987 
L 295.5932 260.307432 
L 296.255761 260.662869 
L 296.918321 259.039327 
L 297.580881 260.238347 
L 298.243442 260.85152 
L 298.906002 261.11737 
L 299.568562 259.588909 
L 300.893683 258.586081 
L 301.556243 260.310756 
L 302.218803 260.584207 
L 304.206484 260.533704 
L 304.869045 259.82642 
L 305.531605 257.427935 
L 306.194165 260.600111 
L 306.856725 260.666082 
L 307.519286 259.071183 
L 308.181846 260.434796 
L 308.844406 260.15801 
L 309.506967 259.072951 
L 310.169527 260.226249 
L 310.832087 259.62718 
L 311.494647 260.457994 
L 312.157208 260.629462 
L 312.819768 260.295021 
L 313.482328 260.26142 
L 314.144889 259.50127 
L 314.807449 259.233029 
L 315.470009 260.498867 
L 316.13257 260.251999 
L 316.79513 258.950043 
L 317.45769 258.683719 
L 318.12025 260.178618 
L 318.782811 260.075837 
L 319.445371 260.91674 
L 320.107931 254.274113 
L 320.770492 259.183785 
L 321.433052 261.132796 
L 322.095612 260.880175 
L 322.758173 260.204753 
L 323.420733 260.24603 
L 324.745853 260.872115 
L 325.408414 259.568174 
L 326.070974 260.941017 
L 326.733534 260.656231 
L 327.396095 260.912778 
L 328.058655 257.909011 
L 328.721215 259.770992 
L 329.383776 259.527302 
L 330.046336 258.915982 
L 330.708896 260.304134 
L 331.371456 260.404775 
L 332.034017 260.097765 
L 332.696577 260.082014 
L 333.359137 259.062754 
L 334.021698 237.030458 
L 334.684258 259.569787 
L 335.346818 259.931619 
L 336.009378 259.773203 
L 336.671939 260.371635 
L 337.334499 259.268228 
L 337.997059 260.617041 
L 338.65962 260.645076 
L 339.98474 260.35319 
L 340.647301 260.945613 
L 341.309861 260.887971 
L 341.972421 259.792765 
L 342.634981 260.894181 
L 343.297542 260.312467 
L 343.960102 260.271523 
L 344.622662 259.91229 
L 345.285223 261.023576 
L 345.947783 260.582568 
L 346.610343 259.385563 
L 347.272904 260.169857 
L 347.935464 259.848317 
L 348.598024 260.149012 
L 349.260584 259.884591 
L 349.923145 261.115625 
L 350.585705 259.519146 
L 351.248265 260.650617 
L 351.910826 260.072094 
L 353.235946 260.806591 
L 353.898506 257.595679 
L 354.561067 259.743646 
L 355.223627 260.69082 
L 355.886187 260.513619 
L 356.548748 260.076214 
L 357.211308 260.774463 
L 357.873868 259.945061 
L 358.536429 260.250412 
L 359.198989 261.087183 
L 359.861549 260.923375 
L 360.524109 259.93238 
L 361.18667 261.216 
L 361.84923 260.274239 
L 362.51179 259.796272 
L 363.174351 260.480331 
L 363.836911 260.12786 
L 364.499471 260.91781 
L 365.824592 259.830593 
L 366.487152 260.402846 
L 367.149712 260.320536 
L 367.812273 260.987496 
L 367.812273 260.987496 
" clip-path="url(#pb125392000)" style="fill: none; stroke: #1f77b4; stroke-width: 1.5; stroke-linecap: square"/>
   </g>
   <g id="patch_3">
    <path d="M 26.925 273.312 
L 26.925 7.2 
" style="fill: none; stroke: #000000; stroke-width: 0.8; stroke-linejoin: miter; stroke-linecap: square"/>
   </g>
   <g id="patch_4">
    <path d="M 384.045 273.312 
L 384.045 7.2 
" style="fill: none; stroke: #000000; stroke-width: 0.8; stroke-linejoin: miter; stroke-linecap: square"/>
   </g>
   <g id="patch_5">
    <path d="M 26.925 273.312 
L 384.045 273.312 
" style="fill: none; stroke: #000000; stroke-width: 0.8; stroke-linejoin: miter; stroke-linecap: square"/>
   </g>
   <g id="patch_6">
    <path d="M 26.925 7.2 
L 384.045 7.2 
" style="fill: none; stroke: #000000; stroke-width: 0.8; stroke-linejoin: miter; stroke-linecap: square"/>
   </g>
  </g>
 </g>
 <defs>
  <clipPath id="pb125392000">
   <rect x="26.925" y="7.2" width="357.12" height="266.112"/>
  </clipPath>
 </defs>
</svg>