<?xml version="1.0" encoding="utf-8" standalone="no"?>
<!DOCTYPE svg PUBLIC "-//W3C//DTD SVG 1.1//EN"
  "http://www.w3.org/Graphics/SVG/1.1/DTD/svg11.dtd">
<svg xmlns:xlink="http://www.w3.org/1999/xlink" width="415.285625pt" height="310.86825pt" viewBox="0 0 415.285625 310.86825" xmlns="http://www.w3.org/2000/svg" version="1.1">
 <metadata>
  <rdf:RDF xmlns:dc="http://purl.org/dc/elements/1.1/" xmlns:cc="http://creativecommons.org/ns#" xmlns:rdf="http://www.w3.org/1999/02/22-rdf-syntax-ns#">
   <cc:Work>
    <dc:type rdf:resource="http://purl.org/dc/dcmitype/StillImage"/>
    <dc:date>2026-01-05T22:20:36.082613</dc:date>
    <dc:format>image/svg+xml</dc:format>
    <dc:creator>
     <cc:Agent>
      <dc:title>Matplotlib v3.10.7, https://matplotlib.org/</dc:title>
     </cc:Agent>
    </dc:creator>
   </cc:Work>
  </rdf:RDF>
 </metadata>
 <defs>
  <style type="text/css">*{stroke-linejoin: round; stroke-linecap: butt}</style>
 </defs>
 <g id="figure_1">
  <g id="patch_1">
   <path d="M 0 310.86825 
L 415.285625 310.86825 
L 415.285625 0 
L 0 0 
z
" style="fill: #ffffff"/>
  </g>
  <g id="axes_1">
   <g id="patch_2">
    <path d="M 50.965625 273.312 
L 408.085625 273.312 
L 408.085625 7.2 
L 50.965625 7.2 
z
" style="fill: #ffffff"/>
   </g>
   <g id="matplotlib.axis_1">
    <g id="xtick_1">
     <g id="line2d_1">
      <defs>
       <path id="me365228fa0" d="M 0 0 
L 0 3.5 
" style="stroke: #000000; stroke-width: 0.8"/>
      </defs>
      <g>
       <use xlink:href="#me365228fa0" x="67.198352" y="273.312" style="stroke: #000000; stroke-width: 0.8"/>
      </g>
     </g>
     <g id="text_1">
      <!-- 0.0 -->
      <g transform="translate(59.24679 287.910438) scale(0.1 -0.1)">
       <defs>
        <path id="DejaVuSans-30" d="M 2034 4250 
Q 1547 4250 1301 3770 
Q 1056 3291 1056 2328 
Q 1056 1369 1301 889 
Q 1547 409 2034 409 
Q 2525 409 2770 889 
Q 3016 1369 3016 2328 
Q 3016 3291 2770 3770 
Q 2525 4250 2034 4250 
z
M 2034 4750 
Q 2819 4750 3233 4129 
Q 3647 3509 3647 2328 
Q 3647 1150 3233 529 
Q 2819 -91 2034 -91 
Q 1250 -91 836 529 
Q 422 1150 422 2328 
Q 422 3509 836 4129 
Q 1250 4750 2034 4750 
z
" transform="scale(0.015625)"/>
        <path id="DejaVuSans-2e" d="M 684 794 
L 1344 794 
L 1344 0 
L 684 0 
L 684 794 
z
" transform="scale(0.015625)"/>
       </defs>
       <use xlink:href="#DejaVuSans-30"/>
       <use xlink:href="#DejaVuSans-2e" transform="translate(63.623047 0)"/>
       <use xlink:href="#DejaVuSans-30" transform="translate(95.410156 0)"/>
      </g>
     </g>
    </g>
    <g id="xtick_2">
     <g id="line2d_2">
      <g>
       <use xlink:href="#me365228fa0" x="132.129261" y="273.312" style="stroke: #000000; stroke-width: 0.8"/>
      </g>
     </g>
     <g id="text_2">
      <!-- 0.2 -->
      <g transform="translate(124.177699 287.910438) scale(0.1 -0.1)">
       <defs>
        <path id="DejaVuSans-32" d="M 1228 531 
L 3431 531 
L 3431 0 
L 469 0 
L 469 531 
Q 828 903 1448 1529 
Q 2069 2156 2228 2338 
Q 2531 2678 2651 2914 
Q 2772 3150 2772 3378 
Q 2772 3750 2511 3984 
Q 2250 4219 1831 4219 
Q 1534 4219 1204 4116 
Q 875 4013 500 3803 
L 500 4441 
Q 881 4594 1212 4672 
Q 1544 4750 1819 4750 
Q 2544 4750 2975 4387 
Q 3406 4025 3406 3419 
Q 3406 3131 3298 2873 
Q 3191 2616 2906 2266 
Q 2828 2175 2409 1742 
Q 1991 1309 1228 531 
z
" transform="scale(0.015625)"/>
       </defs>
       <use xlink:href="#DejaVuSans-30"/>
       <use xlink:href="#DejaVuSans-2e" transform="translate(63.623047 0)"/>
       <use xlink:href="#DejaVuSans-32" transform="translate(95.410156 0)"/>
      </g>
     </g>
    </g>
    <g id="xtick_3">
     <g id="line2d_3">
      <g>
       <use xlink:href="#me365228fa0" x="197.06017" y="273.312" style="stroke: #000000; stroke-width: 0.8"/>
      </g>
     </g>
     <g id="text_3">
      <!-- 0.4 -->
      <g transform="translate(189.108608 287.910438) scale(0.1 -0.1)">
       <defs>
        <path id="DejaVuSans-34" d="M 2419 4116 
L 825 1625 
L 2419 1625 
L 2419 4116 
z
M 2253 4666 
L 3047 4666 
L 3047 1625 
L 3713 1625 
L 3713 1100 
L 3047 1100 
L 3047 0 
L 2419 0 
L 2419 1100 
L 313 1100 
L 313 1709 
L 2253 4666 
z
" transform="scale(0.015625)"/>
       </defs>
       <use xlink:href="#DejaVuSans-30"/>
       <use xlink:href="#DejaVuSans-2e" transform="translate(63.623047 0)"/>
       <use xlink:href="#DejaVuSans-34" transform="translate(95.410156 0)"/>
      </g>
     </g>
    </g>
    <g id="xtick_4">
     <g id="line2d_4">
      <g>
       <use xlink:href="#me365228fa0" x="261.99108" y="273.312" style="stroke: #000000; stroke-width: 0.8"/>
      </g>
     </g>
     <g id="text_4">
      <!-- 0.6 -->
      <g transform="translate(254.039517 287.910438) scale(0.1 -0.1)">
       <defs>
        <path id="DejaVuSans-36" d="M 2113 2584 
Q 1688 2584 1439 2293 
Q 1191 2003 1191 1497 
Q 1191 994 1439 701 
Q 1688 409 2113 409 
Q 2538 409 2786 701 
Q 3034 994 3034 1497 
Q 3034 2003 2786 2293 
Q 2538 2584 2113 2584 
z
M 3366 4563 
L 3366 3988 
Q 3128 4100 2886 4159 
Q 2644 4219 2406 4219 
Q 1781 4219 1451 3797 
Q 1122 3375 1075 2522 
Q 1259 2794 1537 2939 
Q 1816 3084 2150 3084 
Q 2853 3084 3261 2657 
Q 3669 2231 3669 1497 
Q 3669 778 3244 343 
Q 2819 -91 2113 -91 
Q 1303 -91 875 529 
Q 447 1150 447 2328 
Q 447 3434 972 4092 
Q 1497 4750 2381 4750 
Q 2619 4750 2861 4703 
Q 3103 4656 3366 4563 
z
" transform="scale(0.015625)"/>
       </defs>
       <use xlink:href="#DejaVuSans-30"/>
       <use xlink:href="#DejaVuSans-2e" transform="translate(63.623047 0)"/>
       <use xlink:href="#DejaVuSans-36" transform="translate(95.410156 0)"/>
      </g>
     </g>
    </g>
    <g id="xtick_5">
     <g id="line2d_5">
      <g>
       <use xlink:href="#me365228fa0" x="326.921989" y="273.312" style="stroke: #000000; stroke-width: 0.8"/>
      </g>
     </g>
     <g id="text_5">
      <!-- 0.8 -->
      <g transform="translate(318.970426 287.910438) scale(0.1 -0.1)">
       <defs>
        <path id="DejaVuSans-38" d="M 2034 2216 
Q 1584 2216 1326 1975 
Q 1069 1734 1069 1313 
Q 1069 891 1326 650 
Q 1584 409 2034 409 
Q 2484 409 2743 651 
Q 3003 894 3003 1313 
Q 3003 1734 2745 1975 
Q 2488 2216 2034 2216 
z
M 1403 2484 
Q 997 2584 770 2862 
Q 544 3141 544 3541 
Q 544 4100 942 4425 
Q 1341 4750 2034 4750 
Q 2731 4750 3128 4425 
Q 3525 4100 3525 3541 
Q 3525 3141 3298 2862 
Q 3072 2584 2669 2484 
Q 3125 2378 3379 2068 
Q 3634 1759 3634 1313 
Q 3634 634 3220 271 
Q 2806 -91 2034 -91 
Q 1263 -91 848 271 
Q 434 634 434 1313 
Q 434 1759 690 2068 
Q 947 2378 1403 2484 
z
M 1172 3481 
Q 1172 3119 1398 2916 
Q 1625 2713 2034 2713 
Q 2441 2713 2670 2916 
Q 2900 3119 2900 3481 
Q 2900 3844 2670 4047 
Q 2441 4250 2034 4250 
Q 1625 4250 1398 4047 
Q 1172 3844 1172 3481 
z
" transform="scale(0.015625)"/>
       </defs>
       <use xlink:href="#DejaVuSans-30"/>
       <use xlink:href="#DejaVuSans-2e" transform="translate(63.623047 0)"/>
       <use xlink:href="#DejaVuSans-38" transform="translate(95.410156 0)"/>
      </g>
     </g>
    </g>
    <g id="xtick_6">
     <g id="line2d_6">
      <g>
       <use xlink:href="#me365228fa0" x="391.852898" y="273.312" style="stroke: #000000; stroke-width: 0.8"/>
      </g>
     </g>
     <g id="text_6">
      <!-- 1.0 -->
      <g transform="translate(383.901335 287.910438) scale(0.1 -0.1)">
       <defs>
        <path id="DejaVuSans-31" d="M 794 531 
L 1825 531 
L 1825 4091 
L 703 3866 
L 703 4441 
L 1819 4666 
L 2450 4666 
L 2450 531 
L 3481 531 
L 3481 0 
L 794 0 
L 794 531 
z
" transform="scale(0.015625)"/>
       </defs>
       <use xlink:href="#DejaVuSans-31"/>
       <use xlink:href="#DejaVuSans-2e" transform="translate(63.623047 0)"/>
       <use xlink:href="#DejaVuSans-30" transform="translate(95.410156 0)"/>
      </g>
     </g>
    </g>
    <g id="text_7">
     <!-- Time -->
     <g transform="translate(217.292031 301.588563) scale(0.1 -0.1)">
      <defs>
       <path id="DejaVuSans-54" d="M -19 4666 
L 3928 4666 
L 3928 4134 
L 2272 4134 
L 2272 0 
L 1638 0 
L 1638 4134 
L -19 4134 
L -19 4666 
z
" transform="scale(0.015625)"/>
       <path id="DejaVuSans-69" d="M 603 3500 
L 1178 3500 
L 1178 0 
L 603 0 
L 603 3500 
z
M 603 4863 
L 1178 4863 
L 1178 4134 
L 603 4134 
L 603 4863 
z
" transform="scale(0.015625)"/>
       <path id="DejaVuSans-6d" d="M 3328 2828 
Q 3544 3216 3844 3400 
Q 4144 3584 4550 3584 
Q 5097 3584 5394 3201 
Q 5691 2819 5691 2113 
L 5691 0 
L 5113 0 
L 5113 2094 
Q 5113 2597 4934 2840 
Q 4756 3084 4391 3084 
Q 3944 3084 3684 2787 
Q 3425 2491 3425 1978 
L 3425 0 
L 2847 0 
L 2847 2094 
Q 2847 2600 2669 2842 
Q 2491 3084 2119 3084 
Q 1678 3084 1418 2786 
Q 1159 2488 1159 1978 
L 1159 0 
L 581 0 
L 581 3500 
L 1159 3500 
L 1159 2956 
Q 1356 3278 1631 3431 
Q 1906 3584 2284 3584 
Q 2666 3584 2933 3390 
Q 3200 3197 3328 2828 
z
" transform="scale(0.015625)"/>
       <path id="DejaVuSans-65" d="M 3597 1894 
L 3597 1613 
L 953 1613 
Q 991 1019 1311 708 
Q 1631 397 2203 397 
Q 2534 397 2845 478 
Q 3156 559 3463 722 
L 3463 178 
Q 3153 47 2828 -22 
Q 2503 -91 2169 -91 
Q 1331 -91 842 396 
Q 353 884 353 1716 
Q 353 2575 817 3079 
Q 1281 3584 2069 3584 
Q 2775 3584 3186 3129 
Q 3597 2675 3597 1894 
z
M 3022 2063 
Q 3016 2534 2758 2815 
Q 2500 3097 2075 3097 
Q 1594 3097 1305 2825 
Q 1016 2553 972 2059 
L 3022 2063 
z
" transform="scale(0.015625)"/>
      </defs>
      <use xlink:href="#DejaVuSans-54"/>
      <use xlink:href="#DejaVuSans-69" transform="translate(57.958984 0)"/>
      <use xlink:href="#DejaVuSans-6d" transform="translate(85.742188 0)"/>
      <use xlink:href="#DejaVuSans-65" transform="translate(183.154297 0)"/>
     </g>
    </g>
   </g>
   <g id="matplotlib.axis_2">
    <g id="ytick_1">
     <g id="line2d_7">
      <defs>
       <path id="m507b365c0d" d="M 0 0 
L -3.5 0 
" style="stroke: #000000; stroke-width: 0.8"/>
      </defs>
      <g>
       <use xlink:href="#m507b365c0d" x="50.965625" y="238.217125" style="stroke: #000000; stroke-width: 0.8"/>
      </g>
     </g>
     <g id="text_8">
      <!-- 0.95 -->
      <g transform="translate(21.7 242.016343) scale(0.1 -0.1)">
       <defs>
        <path id="DejaVuSans-39" d="M 703 97 
L 703 672 
Q 941 559 1184 500 
Q 1428 441 1663 441 
Q 2288 441 2617 861 
Q 2947 1281 2994 2138 
Q 2813 1869 2534 1725 
Q 2256 1581 1919 1581 
Q 1219 1581 811 2004 
Q 403 2428 403 3163 
Q 403 3881 828 4315 
Q 1253 4750 1959 4750 
Q 2769 4750 3195 4129 
Q 3622 3509 3622 2328 
Q 3622 1225 3098 567 
Q 2575 -91 1691 -91 
Q 1453 -91 1209 -44 
Q 966 3 703 97 
z
M 1959 2075 
Q 2384 2075 2632 2365 
Q 2881 2656 2881 3163 
Q 2881 3666 2632 3958 
Q 2384 4250 1959 4250 
Q 1534 4250 1286 3958 
Q 1038 3666 1038 3163 
Q 1038 2656 1286 2365 
Q 1534 2075 1959 2075 
z
" transform="scale(0.015625)"/>
        <path id="DejaVuSans-35" d="M 691 4666 
L 3169 4666 
L 3169 4134 
L 1269 4134 
L 1269 2991 
Q 1406 3038 1543 3061 
Q 1681 3084 1819 3084 
Q 2600 3084 3056 2656 
Q 3513 2228 3513 1497 
Q 3513 744 3044 326 
Q 2575 -91 1722 -91 
Q 1428 -91 1123 -41 
Q 819 9 494 109 
L 494 744 
Q 775 591 1075 516 
Q 1375 441 1709 441 
Q 2250 441 2565 725 
Q 2881 1009 2881 1497 
Q 2881 1984 2565 2268 
Q 2250 2553 1709 2553 
Q 1456 2553 1204 2497 
Q 953 2441 691 2322 
L 691 4666 
z
" transform="scale(0.015625)"/>
       </defs>
       <use xlink:href="#DejaVuSans-30"/>
       <use xlink:href="#DejaVuSans-2e" transform="translate(63.623047 0)"/>
       <use xlink:href="#DejaVuSans-39" transform="translate(95.410156 0)"/>
       <use xlink:href="#DejaVuSans-35" transform="translate(159.033203 0)"/>
      </g>
     </g>
    </g>
    <g id="ytick_2">
     <g id="line2d_8">
      <g>
       <use xlink:href="#m507b365c0d" x="50.965625" y="194.4329" style="stroke: #000000; stroke-width: 0.8"/>
      </g>
     </g>
     <g id="text_9">
      <!-- 0.96 -->
      <g transform="translate(21.7 198.232118) scale(0.1 -0.1)">
       <use xlink:href="#DejaVuSans-30"/>
       <use xlink:href="#DejaVuSans-2e" transform="translate(63.623047 0)"/>
       <use xlink:href="#DejaVuSans-39" transform="translate(95.410156 0)"/>
       <use xlink:href="#DejaVuSans-36" transform="translate(159.033203 0)"/>
      </g>
     </g>
    </g>
    <g id="ytick_3">
     <g id="line2d_9">
      <g>
       <use xlink:href="#m507b365c0d" x="50.965625" y="150.648675" style="stroke: #000000; stroke-width: 0.8"/>
      </g>
     </g>
     <g id="text_10">
      <!-- 0.97 -->
      <g transform="translate(21.7 154.447893) scale(0.1 -0.1)">
       <defs>
        <path id="DejaVuSans-37" d="M 525 4666 
L 3525 4666 
L 3525 4397 
L 1831 0 
L 1172 0 
L 2766 4134 
L 525 4134 
L 525 4666 
z
" transform="scale(0.015625)"/>
       </defs>
       <use xlink:href="#DejaVuSans-30"/>
       <use xlink:href="#DejaVuSans-2e" transform="translate(63.623047 0)"/>
       <use xlink:href="#DejaVuSans-39" transform="translate(95.410156 0)"/>
       <use xlink:href="#DejaVuSans-37" transform="translate(159.033203 0)"/>
      </g>
     </g>
    </g>
    <g id="ytick_4">
     <g id="line2d_10">
      <g>
       <use xlink:href="#m507b365c0d" x="50.965625" y="106.86445" style="stroke: #000000; stroke-width: 0.8"/>
      </g>
     </g>
     <g id="text_11">
      <!-- 0.98 -->
      <g transform="translate(21.7 110.663669) scale(0.1 -0.1)">
       <use xlink:href="#DejaVuSans-30"/>
       <use xlink:href="#DejaVuSans-2e" transform="translate(63.623047 0)"/>
       <use xlink:href="#DejaVuSans-39" transform="translate(95.410156 0)"/>
       <use xlink:href="#DejaVuSans-38" transform="translate(159.033203 0)"/>
      </g>
     </g>
    </g>
    <g id="ytick_5">
     <g id="line2d_11">
      <g>
       <use xlink:href="#m507b365c0d" x="50.965625" y="63.080225" style="stroke: #000000; stroke-width: 0.8"/>
      </g>
     </g>
     <g id="text_12">
      <!-- 0.99 -->
      <g transform="translate(21.7 66.879444) scale(0.1 -0.1)">
       <use xlink:href="#DejaVuSans-30"/>
       <use xlink:href="#DejaVuSans-2e" transform="translate(63.623047 0)"/>
       <use xlink:href="#DejaVuSans-39" transform="translate(95.410156 0)"/>
       <use xlink:href="#DejaVuSans-39" transform="translate(159.033203 0)"/>
      </g>
     </g>
    </g>
    <g id="ytick_6">
     <g id="line2d_12">
      <g>
       <use xlink:href="#m507b365c0d" x="50.965625" y="19.296" style="stroke: #000000; stroke-width: 0.8"/>
      </g>
     </g>
     <g id="text_13">
      <!-- 1.00 -->
      <g transform="translate(21.7 23.095219) scale(0.1 -0.1)">
       <use xlink:href="#DejaVuSans-31"/>
       <use xlink:href="#DejaVuSans-2e" transform="translate(63.623047 0)"/>
       <use xlink:href="#DejaVuSans-30" transform="translate(95.410156 0)"/>
       <use xlink:href="#DejaVuSans-30" transform="translate(159.033203 0)"/>
      </g>
     </g>
    </g>
    <g id="text_14">
     <!-- $\langle \sigma_i^x \rangle$ -->
     <g transform="translate(14.9 149.806) rotate(-90) scale(0.1 -0.1)">
      <defs>
       <path id="DejaVuSans-27e8" d="M 572 2006 
L 1453 4856 
L 1984 4856 
L 1103 2006 
L 1984 -844 
L 1453 -844 
L 572 2006 
z
" transform="scale(0.015625)"/>
       <path id="DejaVuSans-Oblique-3c3" d="M 2219 3044 
Q 1744 3044 1422 2700 
Q 1081 2341 969 1747 
Q 844 1119 1044 756 
Q 1241 397 1706 397 
Q 2166 397 2503 759 
Q 2844 1122 2966 1747 
Q 3075 2319 2881 2700 
Q 2700 3044 2219 3044 
z
M 2309 3503 
L 4219 3500 
L 4106 2925 
L 3463 2925 
Q 3706 2438 3575 1747 
Q 3406 888 2884 400 
Q 2359 -91 1609 -91 
Q 856 -91 525 400 
Q 194 888 363 1747 
Q 528 2609 1050 3097 
Q 1484 3503 2309 3503 
z
" transform="scale(0.015625)"/>
       <path id="DejaVuSans-Oblique-78" d="M 3841 3500 
L 2234 1784 
L 3219 0 
L 2559 0 
L 1819 1388 
L 531 0 
L -166 0 
L 1556 1844 
L 641 3500 
L 1300 3500 
L 1972 2234 
L 3144 3500 
L 3841 3500 
z
" transform="scale(0.015625)"/>
       <path id="DejaVuSans-Oblique-69" d="M 1172 4863 
L 1747 4863 
L 1606 4134 
L 1031 4134 
L 1172 4863 
z
M 909 3500 
L 1484 3500 
L 800 0 
L 225 0 
L 909 3500 
z
" transform="scale(0.015625)"/>
       <path id="DejaVuSans-27e9" d="M 1925 2006 
L 1044 -844 
L 513 -844 
L 1394 2006 
L 513 4856 
L 1044 4856 
L 1925 2006 
z
" transform="scale(0.015625)"/>
      </defs>
      <use xlink:href="#DejaVuSans-27e8" transform="translate(0 0.373437)"/>
      <use xlink:href="#DejaVuSans-Oblique-3c3" transform="translate(39.013672 0.373437)"/>
      <use xlink:href="#DejaVuSans-Oblique-78" transform="translate(106.865286 38.71875) scale(0.7)"/>
      <use xlink:href="#DejaVuSans-Oblique-69" transform="translate(102.392578 -26.970313) scale(0.7)"/>
      <use xlink:href="#DejaVuSans-27e9" transform="translate(151.025443 0.373437)"/>
     </g>
    </g>
   </g>
   <g id="line2d_13">
    <path d="M 67.198352 19.296 
L 67.847661 19.436081 
L 68.49697 19.855978 
L 69.14628 20.554657 
L 69.795589 21.530399 
L 70.769552 23.508062 
L 71.743516 26.09261 
L 72.71748 29.269754 
L 74.016098 34.396994 
L 75.314716 40.49599 
L 76.937989 49.39469 
L 78.561261 59.582831 
L 80.509189 73.292573 
L 82.78177 90.955635 
L 85.703661 115.507264 
L 94.14468 187.849406 
L 96.417261 205.167754 
L 98.365189 218.585416 
L 100.313116 230.435426 
L 101.936389 238.971092 
L 103.559661 246.193107 
L 104.85828 250.979613 
L 106.156898 254.859422 
L 107.130861 257.165792 
L 108.104825 258.952253 
L 109.078789 260.219708 
L 109.728098 260.778133 
L 110.377407 261.10942 
L 111.026716 261.216 
L 111.676025 261.100855 
L 112.325334 260.767505 
L 112.974643 260.219989 
L 113.948607 259.007229 
L 114.92257 257.340302 
L 115.896534 255.238888 
L 117.195152 251.799145 
L 118.49377 247.683119 
L 120.117043 241.682809 
L 122.06497 233.40364 
L 124.337552 222.566983 
L 127.259443 207.395832 
L 135.051152 166.280261 
L 137.323734 155.619717 
L 139.271661 147.367198 
L 141.219589 140.068718 
L 142.842861 134.78503 
L 144.466134 130.267305 
L 145.764752 127.218822 
L 147.06337 124.676817 
L 148.361989 122.637844 
L 149.660607 121.092358 
L 150.63457 120.248109 
L 151.608534 119.664539 
L 152.582498 119.331661 
L 153.556461 119.238047 
L 154.530425 119.370957 
L 155.504389 119.71648 
L 156.478352 120.259672 
L 157.77697 121.263951 
L 159.075589 122.551949 
L 160.698861 124.498121 
L 162.646789 127.217484 
L 165.244025 131.259716 
L 171.412461 141.013605 
L 173.685043 144.110085 
L 175.63297 146.379249 
L 177.256243 147.952685 
L 178.879516 149.212191 
L 180.502789 150.144415 
L 181.801407 150.651742 
L 183.100025 150.949436 
L 184.398643 151.043477 
L 185.697261 150.943205 
L 187.320534 150.563814 
L 188.943807 149.930695 
L 190.891734 148.887001 
L 193.164316 147.367877 
L 196.410861 144.869561 
L 200.956025 141.367993 
L 203.228607 139.882364 
L 205.176534 138.856834 
L 206.799807 138.217836 
L 208.42308 137.801168 
L 210.046352 137.625309 
L 211.669625 137.702596 
L 213.292898 138.039157 
L 214.91617 138.634998 
L 216.539443 139.484244 
L 218.162716 140.575507 
L 220.110643 142.181069 
L 222.05857 144.074667 
L 224.331152 146.588827 
L 227.253043 150.180815 
L 232.447516 157.032633 
L 236.668025 162.464438 
L 239.589916 165.898288 
L 242.187152 168.626194 
L 244.459734 170.723952 
L 246.732316 172.535894 
L 249.004898 174.06149 
L 251.27748 175.31296 
L 253.550061 176.313234 
L 256.147298 177.188968 
L 258.744534 177.831892 
L 261.99108 178.395571 
L 266.211589 178.887605 
L 273.678643 179.495559 
L 278.548461 179.713782 
L 281.795007 179.645977 
L 284.392243 179.373577 
L 286.664825 178.913189 
L 288.612752 178.312328 
L 290.56068 177.487072 
L 292.508607 176.407167 
L 294.456534 175.045614 
L 296.404461 173.379913 
L 298.352389 171.393181 
L 300.300316 169.07511 
L 302.248243 166.422742 
L 304.520825 162.912855 
L 306.793407 158.977082 
L 309.390643 154.006329 
L 312.312534 147.908794 
L 316.208389 139.201822 
L 324.324752 120.847764 
L 327.246643 114.882756 
L 329.519225 110.718237 
L 331.467152 107.5652 
L 333.41508 104.860807 
L 335.038352 102.990406 
L 336.661625 101.500049 
L 337.960243 100.59934 
L 339.258861 99.971018 
L 340.55748 99.625785 
L 341.856098 99.572865 
L 342.830061 99.729691 
L 344.12868 100.205871 
L 345.427298 100.991669 
L 346.725916 102.090318 
L 348.024534 103.503368 
L 349.323152 105.230667 
L 350.946425 107.828689 
L 352.569698 110.907224 
L 354.19297 114.454594 
L 356.140898 119.307619 
L 358.088825 124.77721 
L 360.361407 131.878436 
L 362.958643 140.838841 
L 365.880534 151.814636 
L 369.451734 166.158047 
L 379.84068 208.584403 
L 382.437916 218.023326 
L 384.710498 225.468795 
L 386.658425 231.102781 
L 388.281698 235.186248 
L 389.90497 238.648767 
L 391.203589 240.933008 
L 391.852898 241.903658 
L 391.852898 241.903658 
" clip-path="url(#pa49b2d6dd6)" style="fill: none; stroke-dasharray: 5.55,2.4; stroke-dashoffset: 0; stroke: #000000; stroke-width: 1.5"/>
   </g>
   <g id="line2d_14">
    <path d="M 70.444898 22.747183 
L 73.691443 32.89793 
L 76.937989 49.153313 
L 80.184534 70.523113 
L 83.43108 95.7194 
L 86.677625 123.246033 
L 89.92417 151.499752 
L 93.170716 178.877072 
L 96.417261 203.879525 
L 99.663807 225.208512 
L 102.910352 241.844129 
L 106.156898 253.101708 
L 109.403443 258.662713 
L 112.649989 258.57942 
L 115.896534 253.253955 
L 119.14308 243.393398 
L 122.389625 229.945946 
L 125.63617 214.019751 
L 128.882716 196.796815 
L 132.129261 179.445943 
L 135.375807 163.040368 
L 138.622352 148.487077 
L 141.868898 136.473844 
L 145.115443 127.437187 
L 148.361989 121.552077 
L 151.608534 118.741607 
L 154.85508 118.707519 
L 158.101625 120.97444 
L 161.34817 124.94612 
L 164.594716 129.966428 
L 167.841261 135.379684 
L 171.087807 140.585483 
L 174.334352 145.084218 
L 177.580898 148.510039 
L 180.827443 150.648958 
L 184.073989 151.443333 
L 187.320534 150.980756 
L 190.56708 149.471364 
L 193.813625 147.217953 
L 197.06017 144.578457 
L 200.306716 141.926422 
L 203.553261 139.614773 
L 206.799807 137.943808 
L 210.046352 137.136546 
L 213.292898 137.323212 
L 216.539443 138.536827 
L 219.785989 140.717519 
L 223.032534 143.725352 
L 226.27908 147.36049 
L 229.525625 151.387629 
L 232.77217 155.56108 
L 236.018716 159.648513 
L 239.265261 163.452175 
L 242.511807 166.823769 
L 245.758352 169.673633 
L 249.004898 171.971613 
L 252.251443 173.742068 
L 255.497989 175.053352 
L 258.744534 176.00239 
L 261.99108 176.697005 
L 265.237625 177.238381 
L 268.48417 177.70449 
L 271.730716 178.137864 
L 274.977261 178.537124 
L 278.223807 178.85451 
L 281.470352 178.998972 
L 284.716898 178.845421 
L 287.963443 178.246155 
L 291.209989 177.04697 
L 294.456534 175.104153 
L 297.70308 172.301706 
L 300.949625 168.566063 
L 304.19617 163.877881 
L 307.442716 158.279866 
L 310.689261 151.879279 
L 313.935807 144.845789 
L 317.182352 137.40465 
L 320.428898 129.826471 
L 323.675443 122.413552 
L 326.921989 115.485207 
L 330.168534 109.361052 
L 333.41508 104.346142 
L 336.661625 100.716905 
L 339.90817 98.708868 
L 343.154716 98.506719 
L 346.401261 100.236255 
L 349.647807 103.958899 
L 352.894352 109.667876 
L 356.140898 117.287002 
L 359.387443 126.669662 
L 362.633989 137.59958 
L 365.880534 149.792882 
L 369.12708 162.901481 
L 372.373625 176.518423 
L 375.62017 190.184563 
L 378.866716 203.399138 
L 382.113261 215.632109 
L 385.359807 226.34174 
L 388.606352 234.995731 
L 391.852898 241.095432 
" clip-path="url(#pa49b2d6dd6)" style="fill: none; stroke: #1f77b4; stroke-width: 1.5; stroke-linecap: square"/>
   </g>
   <g id="patch_3">
    <path d="M 50.965625 273.312 
L 50.965625 7.2 
" style="fill: none; stroke: #000000; stroke-width: 0.8; stroke-linejoin: miter; stroke-linecap: square"/>
   </g>
   <g id="patch_4">
    <path d="M 408.085625 273.312 
L 408.085625 7.2 
" style="fill: none; stroke: #000000; stroke-width: 0.8; stroke-linejoin: miter; stroke-linecap: square"/>
   </g>
   <g id="patch_5">
    <path d="M 50.965625 273.312 
L 408.085625 273.312 
" style="fill: none; stroke: #000000; stroke-width: 0.8; stroke-linejoin: miter; stroke-linecap: square"/>
   </g>
   <g id="patch_6">
    <path d="M 50.965625 7.2 
L 408.085625 7.2 
" style="fill: none; stroke: #000000; stroke-width: 0.8; stroke-linejoin: miter; stroke-linecap: square"/>
   </g>
  </g>
 </g>
 <defs>
  <clipPath id="pa49b2d6dd6">
   <rect x="50.965625" y="7.2" width="357.12" height="266.112"/>
  </clipPath>
 </defs>
</svg>