<?xml version="1.0" encoding="utf-8" standalone="no"?>
<!DOCTYPE svg PUBLIC "-//W3C//DTD SVG 1.1//EN"
  "http://www.w3.org/Graphics/SVG/1.1/DTD/svg11.dtd">
<svg xmlns:xlink="http://www.w3.org/1999/xlink" width="399.624687pt" height="297.190125pt" viewBox="0 0 399.624687 297.190125" xmlns="http://www.w3.org/2000/svg" version="1.1">
 <metadata>
  <rdf:RDF xmlns:dc="http://purl.org/dc/elements/1.1/" xmlns:cc="http://creativecommons.org/ns#" xmlns:rdf="http://www.w3.org/1999/02/22-rdf-syntax-ns#">
   <cc:Work>
    <dc:type rdf:resource="http://purl.org/dc/dcmitype/StillImage"/>
    <dc:date>2025-07-03T21:23:22.856659</dc:date>
    <dc:format>image/svg+xml</dc:format>
    <dc:creator>
     <cc:Agent>
      <dc:title>Matplotlib v3.9.2, https://matplotlib.org/</dc:title>
     </cc:Agent>
    </dc:creator>
   </cc:Work>
  </rdf:RDF>
 </metadata>
 <defs>
  <style type="text/css">*{stroke-linejoin: round; stroke-linecap: butt}</style>
 </defs>
 <g id="figure_1">
  <g id="patch_1">
   <path d="M 0 297.190125 
L 399.624687 297.190125 
L 399.624687 0 
L 0 0 
z
" style="fill: #ffffff"/>
  </g>
  <g id="axes_1">
   <g id="patch_2">
    <path d="M 35.304688 273.312 
L 392.424688 273.312 
L 392.424688 7.2 
L 35.304688 7.2 
z
" style="fill: #ffffff"/>
   </g>
   <g id="matplotlib.axis_1">
    <g id="xtick_1">
     <g id="line2d_1">
      <defs>
       <path id="m5509fcdc88" d="M 0 0 
L 0 3.5 
" style="stroke: #000000; stroke-width: 0.8"/>
      </defs>
      <g>
       <use xlink:href="#m5509fcdc88" x="51.537415" y="273.312" style="stroke: #000000; stroke-width: 0.8"/>
      </g>
     </g>
     <g id="text_1">
      <!-- 0 -->
      <g transform="translate(48.356165 287.910437) scale(0.1 -0.1)">
       <defs>
        <path id="DejaVuSans-30" d="M 2034 4250 
Q 1547 4250 1301 3770 
Q 1056 3291 1056 2328 
Q 1056 1369 1301 889 
Q 1547 409 2034 409 
Q 2525 409 2770 889 
Q 3016 1369 3016 2328 
Q 3016 3291 2770 3770 
Q 2525 4250 2034 4250 
z
M 2034 4750 
Q 2819 4750 3233 4129 
Q 3647 3509 3647 2328 
Q 3647 1150 3233 529 
Q 2819 -91 2034 -91 
Q 1250 -91 836 529 
Q 422 1150 422 2328 
Q 422 3509 836 4129 
Q 1250 4750 2034 4750 
z
" transform="scale(0.015625)"/>
       </defs>
       <use xlink:href="#DejaVuSans-30"/>
      </g>
     </g>
    </g>
    <g id="xtick_2">
     <g id="line2d_2">
      <g>
       <use xlink:href="#m5509fcdc88" x="117.793444" y="273.312" style="stroke: #000000; stroke-width: 0.8"/>
      </g>
     </g>
     <g id="text_2">
      <!-- 100 -->
      <g transform="translate(108.249694 287.910437) scale(0.1 -0.1)">
       <defs>
        <path id="DejaVuSans-31" d="M 794 531 
L 1825 531 
L 1825 4091 
L 703 3866 
L 703 4441 
L 1819 4666 
L 2450 4666 
L 2450 531 
L 3481 531 
L 3481 0 
L 794 0 
L 794 531 
z
" transform="scale(0.015625)"/>
       </defs>
       <use xlink:href="#DejaVuSans-31"/>
       <use xlink:href="#DejaVuSans-30" x="63.623047"/>
       <use xlink:href="#DejaVuSans-30" x="127.246094"/>
      </g>
     </g>
    </g>
    <g id="xtick_3">
     <g id="line2d_3">
      <g>
       <use xlink:href="#m5509fcdc88" x="184.049474" y="273.312" style="stroke: #000000; stroke-width: 0.8"/>
      </g>
     </g>
     <g id="text_3">
      <!-- 200 -->
      <g transform="translate(174.505724 287.910437) scale(0.1 -0.1)">
       <defs>
        <path id="DejaVuSans-32" d="M 1228 531 
L 3431 531 
L 3431 0 
L 469 0 
L 469 531 
Q 828 903 1448 1529 
Q 2069 2156 2228 2338 
Q 2531 2678 2651 2914 
Q 2772 3150 2772 3378 
Q 2772 3750 2511 3984 
Q 2250 4219 1831 4219 
Q 1534 4219 1204 4116 
Q 875 4013 500 3803 
L 500 4441 
Q 881 4594 1212 4672 
Q 1544 4750 1819 4750 
Q 2544 4750 2975 4387 
Q 3406 4025 3406 3419 
Q 3406 3131 3298 2873 
Q 3191 2616 2906 2266 
Q 2828 2175 2409 1742 
Q 1991 1309 1228 531 
z
" transform="scale(0.015625)"/>
       </defs>
       <use xlink:href="#DejaVuSans-32"/>
       <use xlink:href="#DejaVuSans-30" x="63.623047"/>
       <use xlink:href="#DejaVuSans-30" x="127.246094"/>
      </g>
     </g>
    </g>
    <g id="xtick_4">
     <g id="line2d_4">
      <g>
       <use xlink:href="#m5509fcdc88" x="250.305504" y="273.312" style="stroke: #000000; stroke-width: 0.8"/>
      </g>
     </g>
     <g id="text_4">
      <!-- 300 -->
      <g transform="translate(240.761754 287.910437) scale(0.1 -0.1)">
       <defs>
        <path id="DejaVuSans-33" d="M 2597 2516 
Q 3050 2419 3304 2112 
Q 3559 1806 3559 1356 
Q 3559 666 3084 287 
Q 2609 -91 1734 -91 
Q 1441 -91 1130 -33 
Q 819 25 488 141 
L 488 750 
Q 750 597 1062 519 
Q 1375 441 1716 441 
Q 2309 441 2620 675 
Q 2931 909 2931 1356 
Q 2931 1769 2642 2001 
Q 2353 2234 1838 2234 
L 1294 2234 
L 1294 2753 
L 1863 2753 
Q 2328 2753 2575 2939 
Q 2822 3125 2822 3475 
Q 2822 3834 2567 4026 
Q 2313 4219 1838 4219 
Q 1578 4219 1281 4162 
Q 984 4106 628 3988 
L 628 4550 
Q 988 4650 1302 4700 
Q 1616 4750 1894 4750 
Q 2613 4750 3031 4423 
Q 3450 4097 3450 3541 
Q 3450 3153 3228 2886 
Q 3006 2619 2597 2516 
z
" transform="scale(0.015625)"/>
       </defs>
       <use xlink:href="#DejaVuSans-33"/>
       <use xlink:href="#DejaVuSans-30" x="63.623047"/>
       <use xlink:href="#DejaVuSans-30" x="127.246094"/>
      </g>
     </g>
    </g>
    <g id="xtick_5">
     <g id="line2d_5">
      <g>
       <use xlink:href="#m5509fcdc88" x="316.561534" y="273.312" style="stroke: #000000; stroke-width: 0.8"/>
      </g>
     </g>
     <g id="text_5">
      <!-- 400 -->
      <g transform="translate(307.017784 287.910437) scale(0.1 -0.1)">
       <defs>
        <path id="DejaVuSans-34" d="M 2419 4116 
L 825 1625 
L 2419 1625 
L 2419 4116 
z
M 2253 4666 
L 3047 4666 
L 3047 1625 
L 3713 1625 
L 3713 1100 
L 3047 1100 
L 3047 0 
L 2419 0 
L 2419 1100 
L 313 1100 
L 313 1709 
L 2253 4666 
z
" transform="scale(0.015625)"/>
       </defs>
       <use xlink:href="#DejaVuSans-34"/>
       <use xlink:href="#DejaVuSans-30" x="63.623047"/>
       <use xlink:href="#DejaVuSans-30" x="127.246094"/>
      </g>
     </g>
    </g>
    <g id="xtick_6">
     <g id="line2d_6">
      <g>
       <use xlink:href="#m5509fcdc88" x="382.817563" y="273.312" style="stroke: #000000; stroke-width: 0.8"/>
      </g>
     </g>
     <g id="text_6">
      <!-- 500 -->
      <g transform="translate(373.273813 287.910437) scale(0.1 -0.1)">
       <defs>
        <path id="DejaVuSans-35" d="M 691 4666 
L 3169 4666 
L 3169 4134 
L 1269 4134 
L 1269 2991 
Q 1406 3038 1543 3061 
Q 1681 3084 1819 3084 
Q 2600 3084 3056 2656 
Q 3513 2228 3513 1497 
Q 3513 744 3044 326 
Q 2575 -91 1722 -91 
Q 1428 -91 1123 -41 
Q 819 9 494 109 
L 494 744 
Q 775 591 1075 516 
Q 1375 441 1709 441 
Q 2250 441 2565 725 
Q 2881 1009 2881 1497 
Q 2881 1984 2565 2268 
Q 2250 2553 1709 2553 
Q 1456 2553 1204 2497 
Q 953 2441 691 2322 
L 691 4666 
z
" transform="scale(0.015625)"/>
       </defs>
       <use xlink:href="#DejaVuSans-35"/>
       <use xlink:href="#DejaVuSans-30" x="63.623047"/>
       <use xlink:href="#DejaVuSans-30" x="127.246094"/>
      </g>
     </g>
    </g>
   </g>
   <g id="matplotlib.axis_2">
    <g id="ytick_1">
     <g id="line2d_7">
      <defs>
       <path id="md50a6672d8" d="M 0 0 
L -3.5 0 
" style="stroke: #000000; stroke-width: 0.8"/>
      </defs>
      <g>
       <use xlink:href="#md50a6672d8" x="35.304688" y="263.054587" style="stroke: #000000; stroke-width: 0.8"/>
      </g>
     </g>
     <g id="text_7">
      <!-- −15 -->
      <g transform="translate(7.2 266.853806) scale(0.1 -0.1)">
       <defs>
        <path id="DejaVuSans-2212" d="M 678 2272 
L 4684 2272 
L 4684 1741 
L 678 1741 
L 678 2272 
z
" transform="scale(0.015625)"/>
       </defs>
       <use xlink:href="#DejaVuSans-2212"/>
       <use xlink:href="#DejaVuSans-31" x="83.789062"/>
       <use xlink:href="#DejaVuSans-35" x="147.412109"/>
      </g>
     </g>
    </g>
    <g id="ytick_2">
     <g id="line2d_8">
      <g>
       <use xlink:href="#md50a6672d8" x="35.304688" y="209.761468" style="stroke: #000000; stroke-width: 0.8"/>
      </g>
     </g>
     <g id="text_8">
      <!-- −10 -->
      <g transform="translate(7.2 213.560687) scale(0.1 -0.1)">
       <use xlink:href="#DejaVuSans-2212"/>
       <use xlink:href="#DejaVuSans-31" x="83.789062"/>
       <use xlink:href="#DejaVuSans-30" x="147.412109"/>
      </g>
     </g>
    </g>
    <g id="ytick_3">
     <g id="line2d_9">
      <g>
       <use xlink:href="#md50a6672d8" x="35.304688" y="156.468348" style="stroke: #000000; stroke-width: 0.8"/>
      </g>
     </g>
     <g id="text_9">
      <!-- −5 -->
      <g transform="translate(13.5625 160.267567) scale(0.1 -0.1)">
       <use xlink:href="#DejaVuSans-2212"/>
       <use xlink:href="#DejaVuSans-35" x="83.789062"/>
      </g>
     </g>
    </g>
    <g id="ytick_4">
     <g id="line2d_10">
      <g>
       <use xlink:href="#md50a6672d8" x="35.304688" y="103.175229" style="stroke: #000000; stroke-width: 0.8"/>
      </g>
     </g>
     <g id="text_10">
      <!-- 0 -->
      <g transform="translate(21.942187 106.974448) scale(0.1 -0.1)">
       <use xlink:href="#DejaVuSans-30"/>
      </g>
     </g>
    </g>
    <g id="ytick_5">
     <g id="line2d_11">
      <g>
       <use xlink:href="#md50a6672d8" x="35.304688" y="49.88211" style="stroke: #000000; stroke-width: 0.8"/>
      </g>
     </g>
     <g id="text_11">
      <!-- 5 -->
      <g transform="translate(21.942187 53.681328) scale(0.1 -0.1)">
       <use xlink:href="#DejaVuSans-35"/>
      </g>
     </g>
    </g>
   </g>
   <g id="line2d_12">
    <path d="M 51.537415 32.660232 
L 52.199975 19.296 
L 52.862535 34.895614 
L 53.525096 38.968152 
L 54.187656 40.991716 
L 54.850216 47.714463 
L 55.512777 52.036558 
L 56.837897 68.349368 
L 57.500457 72.476561 
L 58.163018 77.892956 
L 58.825578 87.983197 
L 59.488138 94.841972 
L 60.150699 99.356799 
L 60.813259 108.854749 
L 61.475819 104.796204 
L 62.13838 119.634159 
L 62.80094 122.398562 
L 63.4635 123.441679 
L 64.12606 129.829532 
L 64.788621 131.178338 
L 65.451181 133.493382 
L 66.113741 136.82092 
L 66.776302 147.970681 
L 67.438862 149.322578 
L 68.101422 152.683993 
L 68.763982 154.567589 
L 69.426543 155.256412 
L 70.089103 160.262597 
L 70.751663 163.772751 
L 71.414224 163.905388 
L 72.076784 170.205403 
L 72.739344 164.368783 
L 73.401905 170.070466 
L 74.064465 172.261551 
L 74.727025 175.674135 
L 76.052146 175.860824 
L 76.714706 178.28684 
L 77.377266 179.062441 
L 78.039827 181.305716 
L 78.702387 183.126926 
L 79.364947 183.874725 
L 80.027508 187.081133 
L 80.690068 187.233282 
L 81.352628 188.637991 
L 82.015188 192.195372 
L 82.677749 189.197118 
L 84.66543 197.107092 
L 85.32799 195.636234 
L 86.653111 198.726155 
L 87.315671 203.1384 
L 87.978231 202.262595 
L 88.640791 202.366285 
L 89.303352 201.190978 
L 89.965912 203.164773 
L 90.628472 201.72394 
L 91.291033 205.964693 
L 91.953593 207.151783 
L 92.616153 207.148306 
L 93.278713 210.585556 
L 93.941274 211.674056 
L 94.603834 211.558515 
L 95.266394 213.549189 
L 95.928955 213.451008 
L 96.591515 216.589144 
L 97.254075 217.644674 
L 97.916636 215.79807 
L 98.579196 216.48562 
L 99.241756 219.074787 
L 99.904316 220.20701 
L 100.566877 222.277728 
L 101.229437 221.810604 
L 101.891997 220.686742 
L 102.554558 223.410259 
L 103.217118 222.251786 
L 103.879678 223.865619 
L 104.542239 223.507335 
L 105.204799 223.927288 
L 105.867359 226.897909 
L 106.529919 227.547069 
L 107.19248 227.383619 
L 107.85504 229.194534 
L 108.5176 229.741751 
L 109.180161 229.207921 
L 109.842721 232.47578 
L 110.505281 232.067704 
L 111.830402 233.609603 
L 112.492962 235.672942 
L 113.155522 236.734445 
L 114.480643 235.976627 
L 115.143203 236.992252 
L 115.805764 239.226878 
L 116.468324 237.747897 
L 117.130884 241.894719 
L 117.793444 240.569485 
L 118.456005 241.809863 
L 119.118565 239.967243 
L 119.781125 243.52807 
L 120.443686 241.67426 
L 121.106246 244.645904 
L 121.768806 243.300319 
L 122.431367 243.861771 
L 123.093927 244.212794 
L 123.756487 245.768387 
L 124.419047 246.174437 
L 125.081608 245.571223 
L 125.744168 247.305245 
L 126.406728 247.752275 
L 127.069289 246.860347 
L 127.731849 247.869725 
L 128.394409 247.940064 
L 129.05697 249.178722 
L 129.71953 248.579771 
L 130.38209 248.312557 
L 131.04465 249.314718 
L 131.707211 250.774299 
L 132.369771 249.904769 
L 133.032331 250.784187 
L 134.357452 251.876345 
L 135.020012 252.046797 
L 135.682572 251.699136 
L 136.345133 253.68605 
L 137.007693 251.279254 
L 137.670253 252.62165 
L 138.332814 253.554736 
L 138.995374 254.28529 
L 139.657934 253.295442 
L 140.320495 252.957824 
L 140.983055 254.920002 
L 141.645615 254.230778 
L 142.308175 255.073563 
L 142.970736 253.431347 
L 143.633296 255.187089 
L 144.295856 254.73861 
L 144.958417 254.969757 
L 145.620977 255.40295 
L 146.283537 256.087773 
L 146.946098 256.047928 
L 147.608658 255.221122 
L 148.271218 256.226201 
L 148.933778 255.563417 
L 149.596339 255.409503 
L 150.258899 256.467403 
L 150.921459 257.017144 
L 151.58402 256.40609 
L 152.24658 257.395838 
L 152.90914 257.313073 
L 153.5717 256.960252 
L 154.234261 257.065953 
L 154.896821 257.904013 
L 155.559381 258.093188 
L 156.221942 257.554198 
L 156.884502 256.649124 
L 157.547062 257.125942 
L 158.209623 258.393098 
L 158.872183 256.929201 
L 159.534743 257.873839 
L 160.197303 258.427673 
L 160.859864 257.233842 
L 161.522424 258.080692 
L 162.184984 258.232112 
L 162.847545 258.600807 
L 163.510105 257.834016 
L 164.172665 258.29147 
L 165.497786 258.426348 
L 166.160346 258.921911 
L 166.822906 258.703198 
L 167.485467 258.755954 
L 168.810587 257.949027 
L 169.473148 258.351635 
L 170.135708 259.015646 
L 170.798268 258.773949 
L 171.460829 259.608466 
L 172.123389 258.308641 
L 172.785949 258.36816 
L 173.448509 258.974036 
L 174.11107 258.758962 
L 174.77363 259.193822 
L 175.43619 259.161157 
L 176.098751 258.584862 
L 176.761311 258.191125 
L 178.086431 258.743611 
L 178.748992 259.290709 
L 179.411552 259.066996 
L 180.074112 259.009605 
L 180.736673 259.539361 
L 181.399233 258.783044 
L 182.061793 259.747681 
L 182.724354 259.385225 
L 183.386914 259.661532 
L 184.049474 259.524453 
L 184.712034 259.909586 
L 185.374595 258.5455 
L 186.037155 260.216523 
L 186.699715 259.02337 
L 188.024836 260.435709 
L 188.687396 259.259884 
L 189.349957 259.871875 
L 190.012517 260.062666 
L 190.675077 259.77532 
L 191.337637 259.205808 
L 192.000198 259.771081 
L 192.662758 258.963681 
L 193.325318 259.744522 
L 193.987879 259.662542 
L 194.650439 259.282253 
L 195.312999 258.4856 
L 195.975559 258.899624 
L 196.63812 259.62057 
L 197.30068 259.568892 
L 197.96324 259.370481 
L 198.625801 259.77886 
L 199.288361 259.398745 
L 199.950921 260.012293 
L 201.276042 259.289053 
L 201.938602 259.20513 
L 202.601162 259.988674 
L 203.263723 258.275049 
L 203.926283 259.414657 
L 204.588843 259.40355 
L 205.251404 259.729811 
L 205.913964 259.68074 
L 206.576524 260.203221 
L 207.239085 260.49873 
L 207.901645 259.580877 
L 208.564205 260.00887 
L 209.226765 259.346284 
L 209.889326 260.044823 
L 210.551886 260.132714 
L 211.214446 259.756927 
L 212.539567 259.954801 
L 213.864688 259.200963 
L 214.527248 259.96055 
L 216.514929 260.129429 
L 217.177489 259.900131 
L 217.840049 260.496913 
L 218.50261 259.904609 
L 219.16517 259.594554 
L 219.82773 258.918415 
L 220.49029 259.984004 
L 221.152851 259.564936 
L 221.815411 260.571867 
L 222.477971 259.70497 
L 223.140532 259.923019 
L 223.803092 259.849825 
L 224.465652 260.377195 
L 225.128213 259.596829 
L 225.790773 259.32937 
L 226.453333 259.886498 
L 227.115893 260.171866 
L 227.778454 259.367473 
L 228.441014 260.349615 
L 229.103574 260.143833 
L 229.766135 259.601087 
L 230.428695 260.361522 
L 231.091255 260.027106 
L 231.753816 259.96253 
L 232.416376 259.643799 
L 233.078936 260.152003 
L 233.741496 260.305172 
L 234.404057 259.656687 
L 235.066617 260.242284 
L 235.729177 259.977974 
L 236.391738 260.243366 
L 237.054298 260.335309 
L 238.379418 260.213909 
L 239.041979 259.6175 
L 239.704539 259.958029 
L 240.367099 260.011102 
L 241.02966 260.401585 
L 241.69222 259.948874 
L 242.35478 260.574026 
L 243.017341 260.171537 
L 243.679901 259.566572 
L 245.005021 260.102099 
L 245.667582 260.158616 
L 246.992702 260.765418 
L 247.655263 259.625062 
L 248.317823 259.716175 
L 248.980383 259.430807 
L 249.642944 260.297535 
L 250.305504 260.365518 
L 251.630624 260.792798 
L 252.293185 260.33475 
L 252.955745 260.446134 
L 253.618305 259.864069 
L 254.280866 260.052241 
L 254.943426 260.757076 
L 255.605986 260.370186 
L 256.931107 260.416571 
L 257.593667 260.255707 
L 258.256227 259.48528 
L 258.918788 260.33813 
L 259.581348 259.554317 
L 260.243908 260.561186 
L 260.906469 260.689059 
L 261.569029 260.520017 
L 262.894149 259.698945 
L 263.55671 260.503264 
L 264.21927 260.227776 
L 264.88183 259.578125 
L 265.544391 260.364226 
L 266.206951 260.331231 
L 266.869511 259.121559 
L 267.532072 260.483178 
L 268.194632 260.399413 
L 268.857192 260.856829 
L 269.519752 260.102202 
L 270.182313 260.281001 
L 270.844873 260.25001 
L 271.507433 261.216 
L 272.832554 259.680832 
L 273.495114 259.720134 
L 274.157675 260.373138 
L 274.820235 260.603979 
L 275.482795 260.135628 
L 276.145355 260.65844 
L 277.470476 260.414928 
L 278.133036 260.203048 
L 279.458157 260.457905 
L 280.120717 260.228569 
L 280.783277 260.67056 
L 281.445838 260.583748 
L 282.108398 260.26727 
L 283.433519 260.136618 
L 284.096079 260.492018 
L 284.758639 260.675315 
L 285.4212 260.465646 
L 286.08376 260.416013 
L 286.74632 260.02676 
L 287.40888 260.494726 
L 288.071441 260.684317 
L 288.734001 259.696952 
L 289.396561 260.394314 
L 290.721682 260.60539 
L 291.384242 260.323313 
L 293.371923 260.203328 
L 294.034483 259.776654 
L 294.697044 260.464147 
L 295.359604 260.175305 
L 296.022164 260.466202 
L 296.684725 260.416806 
L 297.347285 260.61927 
L 298.009845 259.879649 
L 298.672405 260.184809 
L 299.334966 260.699928 
L 300.660086 260.19278 
L 301.322647 259.532652 
L 301.985207 260.368574 
L 303.972888 260.367233 
L 304.635448 260.509775 
L 305.298008 260.364598 
L 305.960569 260.868296 
L 306.623129 260.566448 
L 307.285689 260.915226 
L 307.94825 260.362112 
L 308.61081 260.951807 
L 309.27337 260.190195 
L 309.935931 260.274779 
L 310.598491 260.633053 
L 311.923611 260.524573 
L 312.586172 260.880586 
L 313.248732 260.257886 
L 313.911292 259.479203 
L 314.573853 260.647772 
L 315.236413 260.490187 
L 315.898973 259.912304 
L 316.561534 260.585727 
L 317.224094 260.750649 
L 317.886654 260.368373 
L 318.549214 260.805625 
L 319.211775 260.269595 
L 319.874335 260.546776 
L 320.536895 259.899182 
L 321.199456 260.611509 
L 321.862016 260.993567 
L 322.524576 260.382048 
L 323.187136 261.208286 
L 323.849697 260.970615 
L 324.512257 259.789468 
L 325.174817 260.717349 
L 325.837378 260.423258 
L 326.499938 259.970578 
L 327.162498 260.028962 
L 327.825059 260.245631 
L 328.487619 260.731435 
L 329.150179 260.549309 
L 329.812739 260.214876 
L 330.4753 260.462723 
L 331.13786 261.122832 
L 331.80042 260.715597 
L 332.462981 260.042003 
L 333.125541 260.451 
L 333.788101 260.569587 
L 334.450662 260.492406 
L 335.113222 261.0041 
L 335.775782 260.35893 
L 336.438342 260.624465 
L 337.100903 260.385759 
L 337.763463 260.312993 
L 338.426023 260.836875 
L 339.088584 260.408165 
L 339.751144 260.370996 
L 340.413704 260.856737 
L 341.076264 260.233755 
L 341.738825 260.862809 
L 342.401385 259.804309 
L 343.063945 260.326925 
L 343.726506 260.121522 
L 344.389066 260.571466 
L 345.051626 260.019464 
L 345.714187 260.971596 
L 346.376747 260.495012 
L 347.039307 260.710357 
L 347.701867 260.628562 
L 348.364428 260.718418 
L 349.026988 260.939089 
L 349.689548 260.247281 
L 350.352109 259.918612 
L 351.014669 260.466869 
L 351.677229 260.147816 
L 353.00235 260.632064 
L 353.66491 260.195298 
L 354.32747 260.866189 
L 354.990031 260.254464 
L 355.652591 260.405631 
L 356.315151 260.790721 
L 356.977712 260.782652 
L 357.640272 260.462044 
L 358.302832 260.405941 
L 358.965393 260.809662 
L 360.290513 260.461365 
L 360.953073 260.080086 
L 361.615634 260.373402 
L 362.278194 260.967803 
L 362.940754 261.014536 
L 364.265875 260.351467 
L 364.928435 260.436609 
L 365.590995 260.108796 
L 366.253556 260.543172 
L 366.916116 260.700969 
L 368.903797 260.384651 
L 369.566357 260.703905 
L 370.228918 260.253549 
L 371.554038 260.22375 
L 372.879159 260.671405 
L 373.541719 260.296962 
L 374.204279 260.430422 
L 374.86684 260.747192 
L 375.5294 260.474134 
L 376.19196 260.495923 
L 376.19196 260.495923 
" clip-path="url(#p1a882af414)" style="fill: none; stroke: #1f77b4; stroke-width: 1.5; stroke-linecap: square"/>
   </g>
   <g id="patch_3">
    <path d="M 35.304688 273.312 
L 35.304688 7.2 
" style="fill: none; stroke: #000000; stroke-width: 0.8; stroke-linejoin: miter; stroke-linecap: square"/>
   </g>
   <g id="patch_4">
    <path d="M 392.424688 273.312 
L 392.424688 7.2 
" style="fill: none; stroke: #000000; stroke-width: 0.8; stroke-linejoin: miter; stroke-linecap: square"/>
   </g>
   <g id="patch_5">
    <path d="M 35.304688 273.312 
L 392.424688 273.312 
" style="fill: none; stroke: #000000; stroke-width: 0.8; stroke-linejoin: miter; stroke-linecap: square"/>
   </g>
   <g id="patch_6">
    <path d="M 35.304688 7.2 
L 392.424688 7.2 
" style="fill: none; stroke: #000000; stroke-width: 0.8; stroke-linejoin: miter; stroke-linecap: square"/>
   </g>
  </g>
 </g>
 <defs>
  <clipPath id="p1a882af414">
   <rect x="35.304688" y="7.2" width="357.12" height="266.112"/>
  </clipPath>
 </defs>
</svg>