<svg width="3504" height="524" xmlns="http://www.w3.org/2000/svg" xmlns:xlink="http://www.w3.org/1999/xlink" xml:space="preserve" overflow="hidden"><g transform="translate(-554 10)"><path d="M1104.5 204.501C1104.5 171.363 1131.36 144.5 1164.5 144.5L2768.5 144.5C2801.64 144.5 2828.5 171.363 2828.5 204.501L2828.5 444.499C2828.5 477.637 2801.64 504.5 2768.5 504.5L1164.5 504.5C1131.36 504.5 1104.5 477.637 1104.5 444.499Z" stroke="#042433" stroke-width="6.875" stroke-miterlimit="8" fill="#FFFFFF" fill-rule="evenodd"/><text font-family="Times New Roman,Times New Roman_MSFontService,sans-serif" font-weight="400" font-size="92" transform="matrix(1 0 0 1 609.212 107)">Input </text><path d="M850.268 63.2341C853.053 63.2341 855.592 63.3988 857.883 63.7282 860.174 64.0576 862.457 64.6266 864.733 65.4352L862.712 74.8688 859.073 74.8688C858.744 72.2035 857.868 70.182 856.445 68.8044 855.023 67.4268 852.784 66.738 849.729 66.738 847.363 66.738 845.447 67.3444 843.979 68.5573 842.512 69.7702 841.778 71.3649 841.778 73.3415 841.778 74.4196 841.965 75.3705 842.34 76.194 842.714 77.0176 843.47 77.9235 844.608 78.9118 845.746 79.9001 847.513 81.113 849.909 82.5505 851.796 83.6885 853.308 84.7292 854.446 85.6725 855.584 86.6159 856.482 87.5518 857.141 88.4802 857.8 89.4085 858.279 90.3893 858.579 91.4225 858.878 92.4557 859.028 93.7061 859.028 95.1735 859.028 97.8389 858.317 100.122 856.894 102.024 855.472 103.926 853.54 105.341 851.099 106.269 848.659 107.198 845.881 107.662 842.766 107.662 840.281 107.662 837.84 107.475 835.444 107.1 833.048 106.726 830.383 106.09 827.448 105.191L829.604 95.3981 833.108 95.3981C833.228 98.2731 834.037 100.444 835.534 101.912 837.031 103.379 839.412 104.113 842.677 104.113 845.522 104.113 847.745 103.477 849.347 102.204 850.95 100.931 851.751 99.1266 851.751 96.7907 851.751 95.443 851.526 94.2826 851.077 93.3093 850.628 92.336 849.894 91.4001 848.876 90.5016 847.857 89.6032 846.24 88.4802 844.024 87.1325 841.688 85.7249 839.869 84.4522 838.566 83.3141 837.263 82.1761 836.283 80.9408 835.624 79.6081 834.965 78.2754 834.635 76.7406 834.635 75.0036 834.635 72.6377 835.272 70.5638 836.545 68.7819 837.817 67 839.637 65.6299 842.003 64.6716 844.369 63.7132 847.124 63.2341 850.268 63.2341Z" fill-rule="evenodd"/><text fill="#000000" fill-opacity="0" font-family="Arial,Arial_MSFontService,sans-serif" font-size="44.4277" x="827.448" y="102.108">ğ‘ </text><text font-family="Times New Roman,Times New Roman_MSFontService,sans-serif" font-weight="400" font-size="92" transform="matrix(1 0 0 1 3747.97 110)">Output</text><rect x="576" y="169" width="328" height="328" stroke="#042433" stroke-width="10.3125" stroke-miterlimit="8" fill="none"/><path d="M6.875-2.02774e-05 6.87526 87.9845-6.87474 87.9845-6.875 2.02774e-05ZM20.6252 81.1094 0.000360892 122.359-20.6248 81.1095Z" transform="matrix(1 0 0 -1 674 325.36)"/><path d="M6.875-2.02774e-05 6.87526 87.9845-6.87474 87.9845-6.875 2.02774e-05ZM20.6252 81.1094 0.000360892 122.359-20.6248 81.1095Z" transform="matrix(1 0 0 -1 801 471.359)"/><path d="M680.875 349 680.875 436.984 667.125 436.984 667.125 349ZM694.625 430.109 674 471.359 653.375 430.109Z"/><path d="M807.875 203 807.875 290.985 794.125 290.985 794.125 203ZM821.625 284.11 801 325.36 780.375 284.11Z"/><path d="M904.5 338.188 1010.48 338.188 1010.48 358.813 904.5 358.813ZM1000.17 317.563 1062.05 348.5 1000.17 379.438Z"/><path d="M1665.5 226.334C1665.5 199.916 1686.92 178.5 1713.33 178.5L1924.67 178.5C1951.08 178.5 1972.5 199.916 1972.5 226.334L1972.5 417.665C1972.5 444.084 1951.08 465.5 1924.67 465.5L1713.33 465.5C1686.92 465.5 1665.5 444.084 1665.5 417.665Z" stroke="#042433" stroke-width="6.875" stroke-miterlimit="8" fill="#DCEAF7" fill-rule="evenodd"/><text font-family="Times New Roman,Times New Roman_MSFontService,sans-serif" font-weight="400" font-size="83" transform="matrix(1 0 0 1 1729.28 352)">Conv </text><path d="M1134 348.125 1608.85 348.125 1608.85 361.875 1134 361.875ZM1601.98 334.375 1643.23 355 1601.98 375.625Z"/><text font-family="Times New Roman,Times New Roman_MSFontService,sans-serif" font-weight="400" font-size="73" transform="matrix(1 0 0 1 1185.66 312)">Norm</text><text font-family="Times New Roman,Times New Roman_MSFontService,sans-serif" font-weight="400" font-size="73" transform="matrix(1 0 0 1 1420.53 312)">GELU</text><path d="M2002 347.125 2260.74 347.125 2260.74 360.875 2002 360.875ZM2253.86 333.375 2295.11 354 2253.86 374.625Z"/><path d="M1165 355 1165 480.382" stroke="#000000" stroke-width="13.75" stroke-miterlimit="8" fill="none" fill-rule="evenodd"/><path d="M1159 481 2693.41 481" stroke="#000000" stroke-width="13.75" stroke-miterlimit="8" fill="none" fill-rule="evenodd"/><path d="M6.875-2.34001e-05 6.87524 71.6559-6.87476 71.6559-6.875 2.34001e-05ZM20.6252 64.7808 0.000360892 106.031-20.6248 64.781Z" transform="matrix(1 0 0 -1 2686 481.031)"/><text font-family="Times New Roman,Times New Roman_MSFontService,sans-serif" font-weight="400" font-size="73" transform="matrix(1 0 0 1 2035.86 310)">GELU</text><path d="M2310.5 222.168C2310.5 195.842 2331.84 174.5 2358.17 174.5L2569.83 174.5C2596.16 174.5 2617.5 195.842 2617.5 222.168L2617.5 412.832C2617.5 439.159 2596.16 460.5 2569.83 460.5L2358.17 460.5C2331.84 460.5 2310.5 439.159 2310.5 412.832Z" stroke="#042433" stroke-width="6.875" stroke-miterlimit="8" fill="#DCEAF7" fill-rule="evenodd"/><text font-family="Times New Roman,Times New Roman_MSFontService,sans-serif" font-weight="400" font-size="83" transform="matrix(1 0 0 1 2374.18 348)">Conv </text><path d="M2639 346.125 2764.32 346.125 2764.32 359.875 2639 359.875ZM2757.44 332.375 2798.69 353 2757.44 373.625Z"/><path d="M2787.67 80.5277 2806.03 98.846 2824.39 80.5277 2828.2 84.2967 2810.05 102.777 2828.24 121.177 2824.19 125.229 2806.03 106.708 2787.31 125.067 2783.54 121.258 2802.06 102.777 2783.62 84.5804Z" fill-rule="evenodd"/><text fill="#000000" fill-opacity="0" font-family="Arial,Arial_MSFontService,sans-serif" font-size="44.7017" x="2783.54" y="119.642">Ã—</text><path d="M2866.36 87.012C2868.06 87.012 2869.4 87.5727 2870.39 88.6939 2871.37 89.8152 2871.87 91.2809 2871.87 93.0911 2871.87 94.5231 2871.54 96.1172 2870.89 97.8734L2871.38 98.0355C2874.03 94.307 2876.55 91.5443 2878.94 89.7476 2881.33 87.9509 2883.8 87.0526 2886.34 87.0526 2888.85 87.0526 2890.78 87.7753 2892.13 89.2208 2893.48 90.6663 2894.16 92.6724 2894.16 95.2391 2894.16 96.9412 2893.77 99.3594 2892.98 102.493L2890.35 113.112C2889.62 116.057 2889.25 118.137 2889.25 119.353 2889.25 120.434 2889.43 121.217 2889.78 121.703 2890.13 122.19 2890.69 122.433 2891.44 122.433 2892.25 122.433 2893.12 122.102 2894.04 121.44 2894.95 120.778 2896.25 119.515 2897.93 117.651L2900.24 119.92C2897.91 122.406 2895.89 124.223 2894.16 125.371 2892.43 126.519 2890.46 127.094 2888.24 127.094 2886.48 127.094 2885.08 126.465 2884.03 125.209 2882.97 123.953 2882.45 122.352 2882.45 120.407 2882.45 118.65 2882.89 116.07 2883.78 112.666L2885.57 105.655C2886.21 103.115 2886.64 101.237 2886.84 100.021 2887.04 98.8055 2887.15 97.8193 2887.15 97.0628 2887.15 95.1986 2886.84 93.8544 2886.21 93.0303 2885.59 92.2063 2884.58 91.7943 2883.17 91.7943 2882.04 91.7943 2880.82 92.2468 2879.51 93.1519 2878.2 94.057 2876.8 95.4215 2875.33 97.2452 2873.86 99.0689 2872.68 100.839 2871.79 102.554 2870.89 104.27 2870.17 106.384 2869.6 108.897L2865.75 126.445 2858.74 126.445 2864.65 100.751C2865.25 98.1571 2865.55 96.1577 2865.55 94.7528 2865.55 93.672 2865.37 92.8885 2865.02 92.4022 2864.67 91.9158 2864.11 91.6727 2863.36 91.6727 2862.52 91.6727 2861.63 92.0172 2860.7 92.7061 2859.77 93.3951 2858.49 94.6447 2856.87 96.4549L2854.56 94.1854C2857.05 91.5916 2859.11 89.7476 2860.76 88.6534 2862.41 87.5592 2864.28 87.012 2866.36 87.012Z" fill-rule="evenodd"/><text fill="#000000" fill-opacity="0" font-family="Arial,Arial_MSFontService,sans-serif" font-size="40.0815" x="2854.56" y="122.083">ğ‘›</text><path d="M2940.5 331.187 3037.91 331.188 3037.91 351.813 2940.5 351.812ZM3027.6 310.563 3089.48 341.5 3027.6 372.438Z"/><path d="M3122.5 205.501C3122.5 172.363 3149.36 145.5 3182.5 145.5L3504.5 145.5C3537.64 145.5 3564.5 172.363 3564.5 205.501L3564.5 445.499C3564.5 478.637 3537.64 505.5 3504.5 505.5L3182.5 505.5C3149.36 505.5 3122.5 478.637 3122.5 445.499Z" stroke="#042433" stroke-width="6.875" stroke-miterlimit="8" fill="#D1D1D1" fill-rule="evenodd"/><text font-family="Times New Roman,Times New Roman_MSFontService,sans-serif" font-weight="400" font-size="92" transform="matrix(1 0 0 1 3269.16 359)">Exp</text><path d="M3593.5 331.187 3697.11 331.188 3697.11 351.813 3593.5 351.812ZM3686.8 310.563 3748.68 341.5 3686.8 372.438Z"/><text font-family="Times New Roman,Times New Roman_MSFontService,sans-serif" font-weight="400" font-size="83" transform="matrix(1 0 0 1 3591.84 288)">Sum</text><path d="M3822 296.713 3830.49 296.713 3814.8 367.88C3819.85 367.557 3824.25 366.026 3827.99 363.287 3831.73 360.548 3834.63 356.788 3836.69 352.008 3838.75 347.228 3839.78 341.848 3839.78 335.868 3839.78 331.643 3839.12 327.471 3837.79 323.353L3838.44 320.668 3847.94 320.668C3848.48 323.282 3848.75 326.325 3848.75 329.798 3848.75 337.819 3847.32 345.106 3844.45 351.659 3841.59 358.212 3837.51 363.314 3832.21 366.966 3826.91 370.619 3820.77 372.552 3813.78 372.767L3808.84 395.111 3800.36 395.111 3805.3 372.606C3791.91 371.353 3785.21 365.677 3785.21 355.58 3785.21 352.894 3785.8 349.134 3786.98 344.3L3788.65 337.64C3789.54 334.06 3789.99 331.499 3789.99 329.96 3789.99 328.527 3789.73 327.507 3789.21 326.898 3788.69 326.289 3787.95 325.985 3786.98 325.985 3785.87 325.985 3784.81 326.334 3783.79 327.032 3782.77 327.731 3781.74 328.617 3780.7 329.691L3777.74 326.737C3780.43 324.195 3782.77 322.404 3784.75 321.366 3786.74 320.327 3788.74 319.808 3790.74 319.808 3793.43 319.808 3795.49 320.614 3796.95 322.225 3798.4 323.837 3799.12 326.164 3799.12 329.208 3799.12 331.356 3798.67 334.256 3797.78 337.909L3795.79 345.858C3795.43 347.29 3795.09 349.027 3794.77 351.068 3794.45 353.109 3794.29 354.774 3794.29 356.063 3794.29 359.859 3795.31 362.696 3797.35 364.576 3799.39 366.456 3802.4 367.593 3806.37 367.987Z" fill-rule="evenodd"/><text fill="#000000" fill-opacity="0" font-family="Arial,Arial_MSFontService,sans-serif" font-size="98.3984" x="3777.74" y="382.811">ğœ“</text><path d="M3897.57 294.403 3899.02 298.539C3890.64 301.296 3884.43 306.676 3880.4 314.679 3876.38 322.682 3874.36 332.735 3874.36 344.838 3874.36 357.37 3876.38 367.7 3880.4 375.829 3884.43 383.957 3890.58 389.4 3898.85 392.157L3897.57 396.293C3887.07 393.535 3879.04 387.6 3873.45 378.487 3867.86 369.374 3865.07 358.337 3865.07 345.375 3865.07 332.448 3867.87 321.411 3873.48 312.262 3879.08 303.113 3887.11 297.16 3897.57 294.403Z" fill-rule="evenodd"/><text fill="#000000" fill-opacity="0" font-family="Arial,Arial_MSFontService,sans-serif" font-size="101.89" x="3865.07" y="383.556">(</text><path d="M3931.21 319.808C3934.54 319.808 3937.57 320.005 3940.31 320.399 3943.05 320.793 3945.78 321.473 3948.5 322.44L3946.08 333.719 3941.73 333.719C3941.34 330.533 3940.29 328.116 3938.59 326.468 3936.89 324.821 3934.21 323.998 3930.56 323.998 3927.73 323.998 3925.44 324.723 3923.69 326.173 3921.93 327.623 3921.05 329.53 3921.05 331.893 3921.05 333.182 3921.28 334.319 3921.73 335.304 3922.17 336.289 3923.08 337.372 3924.44 338.553 3925.8 339.735 3927.91 341.185 3930.78 342.904 3933.03 344.265 3934.84 345.509 3936.2 346.637 3937.56 347.765 3938.64 348.884 3939.42 349.994 3940.21 351.104 3940.78 352.276 3941.14 353.512 3941.5 354.747 3941.68 356.242 3941.68 357.997 3941.68 361.184 3940.83 363.914 3939.13 366.188 3937.43 368.461 3935.12 370.153 3932.2 371.263 3929.28 372.373 3925.96 372.928 3922.24 372.928 3919.26 372.928 3916.35 372.705 3913.48 372.257 3910.62 371.809 3907.43 371.048 3903.92 369.974L3906.5 358.265 3910.69 358.265C3910.83 361.703 3911.8 364.299 3913.59 366.053 3915.38 367.808 3918.23 368.685 3922.13 368.685 3925.53 368.685 3928.19 367.924 3930.11 366.402 3932.02 364.881 3932.98 362.723 3932.98 359.93 3932.98 358.319 3932.71 356.931 3932.17 355.768 3931.64 354.604 3930.76 353.485 3929.54 352.411 3928.32 351.337 3926.39 349.994 3923.74 348.382 3920.95 346.699 3918.77 345.178 3917.21 343.817 3915.66 342.456 3914.48 340.979 3913.7 339.386 3912.91 337.792 3912.51 335.957 3912.51 333.88 3912.51 331.052 3913.28 328.572 3914.8 326.442 3916.32 324.311 3918.49 322.673 3921.32 321.527 3924.15 320.381 3927.45 319.808 3931.21 319.808Z" fill-rule="evenodd"/><text fill="#000000" fill-opacity="0" font-family="Arial,Arial_MSFontService,sans-serif" font-size="53.1201" x="3903.92" y="366.288">ğ‘ </text><path d="M3957.96 294.403C3968.42 297.16 3976.45 303.113 3982.05 312.262 3987.66 321.411 3990.46 332.448 3990.46 345.375 3990.46 358.337 3987.66 369.374 3982.08 378.487 3976.49 387.6 3968.45 393.535 3957.96 396.293L3956.67 392.157C3964.94 389.4 3971.09 383.957 3975.12 375.829 3979.15 367.7 3981.17 357.37 3981.17 344.838 3981.17 332.735 3979.16 322.682 3975.15 314.679 3971.14 306.676 3964.93 301.296 3956.51 298.539Z" fill-rule="evenodd"/><text fill="#000000" fill-opacity="0" font-family="Arial,Arial_MSFontService,sans-serif" font-size="101.89" x="3956.51" y="383.556">)</text><text font-family="Times New Roman,Times New Roman_MSFontService,sans-serif" font-weight="400" font-size="83" transform="matrix(1 0 0 1 2909.72 285)">Norm</text></g></svg>